<svg xmlns="http://www.w3.org/2000/svg" viewBox="0 0 220.35 141.22"><defs><style>.cls-1{isolation:isolate;}.cls-2{fill:#c0e2ca;}.cls-2,.cls-3{fill-rule:evenodd;}.cls-3{fill:#231f20;mix-blend-mode:darken;}</style></defs><g class="cls-1"><g id="Layer_2" data-name="Layer 2"><g id="Ornaments"><path class="cls-2" d="M131.78,45l-.15,0a.86.86,0,0,0-.84.72,1,1,0,0,0-.7.92,1.1,1.1,0,0,0,0,.18h0A4,4,0,0,0,128,48.63a6.23,6.23,0,0,0-.77,2.94v.37a6.23,6.23,0,0,0,.77,2.94,4.09,4.09,0,0,0,1.74,1.67.89.89,0,0,0,.89.84.9.9,0,0,0,.76.42.94.94,0,0,0,.34-.07,1.29,1.29,0,0,0,.16.17l.15.09h0l.12.06.09,0h.43l.09,0,.12-.05.13-.09a.76.76,0,0,0,.18-.18,1,1,0,0,0,.35.07,4.09,4.09,0,0,0,1.65-1.27,4.13,4.13,0,0,0,1.71-1.66A6.19,6.19,0,0,0,137.7,52h0a.56.56,0,0,0,0-.07v-.13a.87.87,0,0,0,0-.19,6.11,6.11,0,0,0-.76-2.93,4,4,0,0,0-2.05-1.81v0a1.09,1.09,0,0,0,0-.18,1,1,0,0,0-.7-.92.84.84,0,0,0-.84-.72l-.16,0a.76.76,0,0,0-.71-.71A.77.77,0,0,0,131.78,45Z"/><path class="cls-2" d="M4.52,45.24l-.15,0a.86.86,0,0,0-.84.72,1,1,0,0,0-.7.92,1.1,1.1,0,0,0,0,.18h0A4,4,0,0,0,.77,48.88,6.23,6.23,0,0,0,0,51.82v.37a6.23,6.23,0,0,0,.77,2.94A4.09,4.09,0,0,0,2.51,56.8a.89.89,0,0,0,.89.84.9.9,0,0,0,.76.42A.94.94,0,0,0,4.5,58a1.29,1.29,0,0,0,.16.17l.15.09h0l.12.06.09,0h.43l.09,0,.12-.05.13-.09A1,1,0,0,0,6,58a1,1,0,0,0,.34.07.92.92,0,0,0,.77-.42A.9.9,0,0,0,8,56.79a4.13,4.13,0,0,0,1.71-1.66,6.19,6.19,0,0,0,.76-2.93h0a.23.23,0,0,1,0-.07V52a.87.87,0,0,0,0-.19,6.11,6.11,0,0,0-.76-2.93,4,4,0,0,0-2-1.81v0a1.09,1.09,0,0,0,0-.18,1,1,0,0,0-.7-.92.84.84,0,0,0-.84-.72l-.16,0a.76.76,0,0,0-.71-.71A.77.77,0,0,0,4.52,45.24Z"/><path class="cls-2" d="M59.38,66.06h-.15a.85.85,0,0,0-.84.71,1,1,0,0,0-.7.93,1.1,1.1,0,0,0,0,.18h0a4,4,0,0,0-2.08,1.82,6.28,6.28,0,0,0-.77,3V73A6.23,6.23,0,0,0,55.63,76a4.15,4.15,0,0,0,1.74,1.67.9.9,0,0,0,.89.84.88.88,0,0,0,.76.41.77.77,0,0,0,.34-.07.87.87,0,0,0,.16.17,1,1,0,0,0,.15.1h0l.12,0,.09,0h.06l.14,0h.17l.06,0h0l.09,0,.12,0,.13-.08a1,1,0,0,0,.18-.19.8.8,0,0,0,.34.07.93.93,0,0,0,.77-.41.91.91,0,0,0,.89-.86A4.16,4.16,0,0,0,64.54,76,6.23,6.23,0,0,0,65.3,73h0a.18.18,0,0,1,0-.06v-.13a.87.87,0,0,0,0-.19,6.12,6.12,0,0,0-.76-2.94,4.13,4.13,0,0,0-2.05-1.81s0,0,0,0a1.09,1.09,0,0,0,0-.18,1,1,0,0,0-.7-.93.84.84,0,0,0-.84-.71l-.16,0a.72.72,0,1,0-1.43,0Z"/><path class="cls-2" d="M148.11,65.31l-.14,0a.84.84,0,0,0-.84.71,1,1,0,0,0-.7.93,1.09,1.09,0,0,0,0,.18h0a4.08,4.08,0,0,0-2.09,1.82,6.16,6.16,0,0,0-.76,3,2.28,2.28,0,0,0,0,.37,6.12,6.12,0,0,0,.76,2.94,4.15,4.15,0,0,0,1.74,1.67.92.92,0,0,0,.89.84.9.9,0,0,0,.76.42.85.85,0,0,0,.35-.08.52.52,0,0,0,.16.17s.12.08.14.1h0l.12.06.08,0H149l.06,0h0l.09,0,.11-.06a.7.7,0,0,0,.14-.08.75.75,0,0,0,.17-.19.85.85,0,0,0,.35.08,4.09,4.09,0,0,0,1.65-1.27,4.27,4.27,0,0,0,1.72-1.66,6.23,6.23,0,0,0,.75-2.93h0v-.39a6.36,6.36,0,0,0-.76-2.94,4.11,4.11,0,0,0-2.06-1.81s0,0,0,0a1.1,1.1,0,0,0,0-.18,1,1,0,0,0-.7-.92.86.86,0,0,0-.84-.72l-.16,0a.79.79,0,0,0-.72-.72A.78.78,0,0,0,148.11,65.31Z"/><path class="cls-2" d="M138.11,86.93l-.14,0a.84.84,0,0,0-.84.72,1,1,0,0,0-.69,1.1v0a4.08,4.08,0,0,0-2.09,1.82,6.12,6.12,0,0,0-.76,2.94,2.28,2.28,0,0,0,0,.37,6.12,6.12,0,0,0,.76,2.94,4.15,4.15,0,0,0,1.74,1.67,4.17,4.17,0,0,0,1.65,1.26,1,1,0,0,0,.35-.07.85.85,0,0,0,.16.17l.14.09h0l.12,0,.08,0h.06l.15,0h.23l.09,0,.11,0a.8.8,0,0,0,.14-.09,1.53,1.53,0,0,0,.18-.18.94.94,0,0,0,.34.07,4.09,4.09,0,0,0,1.65-1.27,4.14,4.14,0,0,0,1.72-1.66A6.19,6.19,0,0,0,144,93.9h0V93.5a6.35,6.35,0,0,0-.76-2.93,4.06,4.06,0,0,0-2.06-1.81,0,0,0,0,0,0,0,1.11,1.11,0,0,0,0-.17,1,1,0,0,0-.7-.93.86.86,0,0,0-.84-.72l-.16,0a.77.77,0,0,0-.72-.71A.78.78,0,0,0,138.11,86.93Z"/><path class="cls-2" d="M5.38,86.43l-.14,0a.85.85,0,0,0-.84.72,1,1,0,0,0-.7.93,1.09,1.09,0,0,0,0,.18h0a4.08,4.08,0,0,0-2.09,1.82A6.12,6.12,0,0,0,.87,93v.38a6.3,6.3,0,0,0,.76,2.94A4.21,4.21,0,0,0,3.37,98a.9.9,0,0,0,.89.83.92.92,0,0,0,.76.42.81.81,0,0,0,.35-.07.85.85,0,0,0,.16.17l.14.1h0l.12,0,.09,0H6l.14,0h.23l.09,0,.12,0,.13-.08a1.53,1.53,0,0,0,.18-.19.77.77,0,0,0,.34.07.9.9,0,0,0,.76-.42.91.91,0,0,0,.9-.85,4.22,4.22,0,0,0,1.71-1.65,6.35,6.35,0,0,0,.76-2.93h0V93a6.35,6.35,0,0,0-.76-2.93A4.08,4.08,0,0,0,8.5,88.26s0,0,0,0a1.09,1.09,0,0,0,0-.18,1,1,0,0,0-.7-.93A.85.85,0,0,0,7,86.41l-.16,0a.76.76,0,0,0-.71-.71A.78.78,0,0,0,5.38,86.43Z"/><path class="cls-2" d="M162.43,127l-.14,0a.84.84,0,0,0-.84.71,1,1,0,0,0-.7.93,1.09,1.09,0,0,0,0,.18h0a4,4,0,0,0-2.09,1.82,6.16,6.16,0,0,0-.76,3,2.29,2.29,0,0,0,0,.37,6.12,6.12,0,0,0,.76,2.94,4.09,4.09,0,0,0,1.74,1.67,4.17,4.17,0,0,0,1.65,1.26.94.94,0,0,0,.34-.07.65.65,0,0,0,.17.16.76.76,0,0,0,.14.1h0l.12.06.09,0h.44l.09,0,.11-.06a.7.7,0,0,0,.14-.08.94.94,0,0,0,.17-.18,1,1,0,0,0,.35.07,4.09,4.09,0,0,0,1.65-1.27,4.27,4.27,0,0,0,1.72-1.66,6.23,6.23,0,0,0,.75-2.93h0v-.39a6.36,6.36,0,0,0-.76-2.94,4.15,4.15,0,0,0-2.06-1.81s0,0,0,0a1.1,1.1,0,0,0,0-.18,1,1,0,0,0-.71-.92A.84.84,0,0,0,164,127l-.16,0a.72.72,0,1,0-1.44,0Z"/></g><g id="Aya_No." data-name="Aya No."><path class="cls-3" d="M132,49.77h0a2.36,2.36,0,0,0-.16.77.59.59,0,0,0,.13.19,6,6,0,0,1,1,2.78c0,.06,0,.25.1.25s.09-.19.12-.25a4.3,4.3,0,0,0-.15-2,5.45,5.45,0,0,0-.91-1.74S132,49.77,132,49.77Z"/><path class="cls-3" d="M5,50.11A1.25,1.25,0,0,0,4.56,52a6.88,6.88,0,0,1,.78,1.87c0,.09,0,.15.1.15s.12,0,.12-.15a4.13,4.13,0,0,0-.72-2.37.8.8,0,0,1-.12-.31c0-.16.47-.25.65-.25s.44,0,.56,0l.16-.78A1.92,1.92,0,0,0,5,50.11Z"/><path class="cls-3" d="M150,70.15a.93.93,0,0,1-.13.46.47.47,0,0,1-.74,0,.88.88,0,0,1,0-.28c0-.06,0-.09-.07-.09s-.06,0-.09.09a1,1,0,0,1-.12.37.61.61,0,0,1-.94.07,1.37,1.37,0,0,1-.28-.44c0-.06-.06-.09-.09,0l.06,0-.13.66c0,.06,0,.06.07.15.21.53.34.75.53,1.22a7,7,0,0,1,.37,1.53c0,.06,0,.18.09.18s.1-.06.1-.12a4.25,4.25,0,0,0-.28-2.12q0-.09,0-.09h.09a.64.64,0,0,0,.53-.41.61.61,0,0,0,.94,0,1.46,1.46,0,0,0,.18-1.18c0-.07,0-.07,0-.07A.07.07,0,0,0,150,70.15Z"/><path class="cls-3" d="M59.9,70.88a2.3,2.3,0,0,0-.84,1.37.67.67,0,0,0,.19.53c.21.15.52.22.52.37a4.75,4.75,0,0,0-.43,1.06c-.06.44.22.63.43.63a1.7,1.7,0,0,0,1.31-.91c0-.06,0-.12,0-.09a5,5,0,0,1-.74.19c-.42,0-.61-.12-.59-.21s.37-.71.43-1a.54.54,0,0,0-.06-.44c-.19-.22-.69-.25-.69-.46s.25-.32.44-.44a2.59,2.59,0,0,0,.15-.53C60.06,70.88,60,70.78,59.9,70.88Z"/><path class="cls-3" d="M139.57,93.91c0,.24-.44.37-.75.37s-.71-.21-.72-.46a.68.68,0,0,1,.62-.63A1.06,1.06,0,0,1,139.57,93.91Zm-1.72,0c0,.56.28,1.15.91,1.15s1-.44,1-1.28c0-.5-.46-1.43-1.06-1.43S137.85,93.47,137.85,93.91Z"/><path class="cls-3" d="M4.92,91.26a3.44,3.44,0,0,0,0,.56.56.56,0,0,0,.53.47,3.24,3.24,0,0,0,.93-.06c.07,0,.1,0,.1.09a7.87,7.87,0,0,0,.06,1.28A4.28,4.28,0,0,0,7,95.13c0,.09.09.12.12,0a3.14,3.14,0,0,1,.16-.53.19.19,0,0,0,0-.22A6.59,6.59,0,0,1,6.73,92c0-.34,0-.65-.47-.59l.06-.06a2.78,2.78,0,0,1-.72.09c-.25,0-.56-.09-.56-.19a.06.06,0,1,0-.12,0Z"/><path class="cls-3" d="M164.06,131.9a8.31,8.31,0,0,0-.78,2.34,9.81,9.81,0,0,0-1.22-2.34c0-.06-.12-.06-.12.07a3.81,3.81,0,0,0-.07.59.23.23,0,0,0,.07.19,7.47,7.47,0,0,1,1.31,2.9c0,.06,0,.12.09.12s.09,0,.09-.12a10.55,10.55,0,0,1,.91-3c0-.09.06-.09.06-.18s-.09-.44-.13-.57S164.15,131.78,164.06,131.9Z"/></g><g id="Quran_Text" data-name="Quran Text"><path class="cls-3" d="M95.11,12.12c-.16.07-2.06.72-2.23.79s-.23.1-.26.23a.94.94,0,0,1-.06.19c0,.07-.07.13.16,0s2-.69,2.16-.76.2-.09.26-.23a.84.84,0,0,0,.1-.23l0,0C95.31,12.09,95.34,12.06,95.11,12.12Zm14.3-.62a2.9,2.9,0,0,0-.29,1.41c0,.16.1.46.36.46s.29-.1.39-.46a.51.51,0,0,0,0-.2h0c0-.06,0-.1-.06,0s-.33.39-.49.1a1.39,1.39,0,0,1,.06-1,2.38,2.38,0,0,1,.1-.3C109.51,11.4,109.48,11.34,109.41,11.5ZM103,10.68c-.17.07-3.61,1.41-3.77,1.51s-.23.1-.26.23a.62.62,0,0,1-.07.19c0,.07-.06.17.17,0,.06,0,3.53-1.41,3.66-1.48a.44.44,0,0,0,.27-.23,1.18,1.18,0,0,0,.09-.23l.07,0C103.16,10.65,103.2,10.55,103,10.68Zm31.09-.39a1.83,1.83,0,0,0-.09.39c0,.07,0,.33,0,.33a.56.56,0,0,1-.69,0,.77.77,0,0,0,.07-.26c0-.1,0-.2-.1-.07s-.2.53-.3.59-.19.43-.95.1a.5.5,0,0,0-.68.13,5.35,5.35,0,0,1-2.23,1.12c-.1.06-.33.23-.06.19a2.91,2.91,0,0,0,2-.69c.13-.13.26-.45.75-.26.27.1.76.53,1.31-.32.33.19.79.13.89-.1a3.34,3.34,0,0,0,.16-.62v-.36l0-.1C134.19,10.26,134.13,10.09,134.06,10.29ZM93,6.13l-.36.53-.72-.53h-.06l-.43.59v.07l.76.55h.06l.36-.52.72.52h.07l.42-.59V6.69l-.75-.56Zm27.14,2.92a3.38,3.38,0,0,1-1.24.65c-.2,0-.72-.07-.49-.62.06-.16.57-1,.61-1.07C119.29,8.14,120.5,8.76,120.15,9.05Zm.16-3.57c-.13.16-1.3,1.73-1.3,1.73l0-.06-.89-.63s.36-.09.43-.09.1-.1,0-.17-1.15-.49-1.24-.52-.1-.07-.13,0,0,.79,0,.79,0,0,.07.1a1.47,1.47,0,0,1,.26.23c.07.06,1,.85,1.11.88a4.64,4.64,0,0,0-.55,1.54c-.07.68,0,1.6.91,1.31.27-.07,1.28-.49,1.51-1.21a1.28,1.28,0,0,0-.07-1.22,4.27,4.27,0,0,0-1-.75l.69-1a4,4,0,0,0,.29-.91C120.41,5.41,120.41,5.35,120.31,5.48ZM100,5.22A2.77,2.77,0,0,0,99.2,6a3.83,3.83,0,0,1-1.57,1.67,12.61,12.61,0,0,0-1.51.88c-.06.13-.22.46-.26.59s0,.2.1.17a16.71,16.71,0,0,1,3.31.26,7.74,7.74,0,0,1-2.69,1.21A1.48,1.48,0,0,1,94.72,10c-.13-.23-.36-1.24-1.21-.91a3,3,0,0,0-1.74,1.8c-.29.81-.59,1.5-1,1.5a1.73,1.73,0,0,1-1.28-1.73,4.86,4.86,0,0,1,.1-1.18c0-.2-.1-.33-.16-.1s-.66,2.75.88,3.67a.81.81,0,0,0,1.15-.33c.13-.26.69-2.1,1.54-2.62.23-.13.78-.43,1-.07s.49,1.61,1.74,1.71c.16,0,.85.13,2.75-.85a11.29,11.29,0,0,1,2.35-1.12v0c.33-.07,1.41-.13,1.41-.13s.39-.66.46-.75.1-.17-.1-.14-1.64.07-2.52,0-2.42-.26-2.42-.26a6,6,0,0,0,1.44-1.53c.1-.2.46-.73.65-.79s.4-.1.46.13c.1.39.1.88.13,1s.13.26.2.1a2.7,2.7,0,0,0,.1-1.47C100.68,5.71,100.51,4.92,100,5.22Zm27.83,3.4a2.07,2.07,0,0,1-.92.1c-.59,0-.52-.26-.46-.36A.92.92,0,0,1,127.78,8.62Zm-5.4-3.9c0,.1-.1.53-.13.63s0,.16,0,.26a4.58,4.58,0,0,1,.23.55c.06.23.92,1.84,1,2a.37.37,0,0,1,0,.36c-2.72,2.85-7.93,4.62-8.09,4.72s-.13.16.16.13a20.31,20.31,0,0,0,3.44-.79,20.55,20.55,0,0,0,3.24-2,9.5,9.5,0,0,0-.06,1.11c.09,2.29,2.12,1.93,2.68,1.8a8,8,0,0,0,3.77-3,2.89,2.89,0,0,0,.16-1.22,12.49,12.49,0,0,0,1.34-1,1.32,1.32,0,0,0,1.05,1.31,2,2,0,0,0,1.93-1.08,1.11,1.11,0,0,0,.95.69.9.9,0,0,0,1.21-.66h0A1.83,1.83,0,0,0,135,6.82c-.06-.07-.1,0-.13.1s-.1.42-.16.65c0,0,.19.33.26.49s0,.27-.23.3a1.54,1.54,0,0,1-1.21-.43c-.17-.16,0-.42.13-.75s-.1-.29-.23,0c-.49,1.31-1.21,1.44-1.38,1.5-1.67.46-1.53-1.08-1.5-1.3s-.17-.17-.39,0a7.78,7.78,0,0,1-1.58,1,3.27,3.27,0,0,0-.78-1c-1.8-1.31-2,1.34-1.9,1.64.26,1.11,2.13.46,2.39.42s.2.36,0,.59A6.92,6.92,0,0,1,127,11.4c-1.8,1.44-2.69,1.34-3,1.34-1.77-.06-1.6-1.93-1.51-2.35A5,5,0,0,0,123.82,9a2.23,2.23,0,0,0,0-1.67c-.17-.36-.72-1.31-.72-1.31h.45s.13,0,0-.17l-1-1C122.44,4.69,122.41,4.63,122.38,4.72Zm-2.95-.95-.36.53-.72-.53h-.06l-.43.59v.07l.75.56h.07l.36-.53.72.53h.06l.43-.59V4.33l-.75-.56Zm-30.05.69a6.9,6.9,0,0,0-.39,3h0c0,.33.26.92.69.92.23,0,.49-.2.65-1a1.67,1.67,0,0,0,0-.39c0-.1-.07-.23-.14,0-.13.49-.52.85-.88.23a3.16,3.16,0,0,1,0-2c.07-.26.13-.62.13-.62C89.58,4.27,89.48,4.14,89.38,4.46Zm44-.69A3.51,3.51,0,0,0,133,5.25c0,.16.13.49.36.49s.29-.1.39-.49a.66.66,0,0,0,0-.2c0-.06,0-.13-.06,0s-.33.43-.53.1a1.31,1.31,0,0,1,.07-1h0a3,3,0,0,1,.1-.33C133.47,3.68,133.41,3.58,133.34,3.77Zm-33-.91-.36.52-.72-.52H99.2l-.42.59v.06l.75.56h.06l.36-.52.73.52h.06l.43-.59V3.41l-.76-.55Zm25.53.52A3.94,3.94,0,0,0,125.52,5h.07c0,.16.13.52.39.52s.33-.1.42-.52a.55.55,0,0,0,0-.23c0-.07,0-.13-.07,0s-.36.46-.56.1a1.53,1.53,0,0,1,.07-1.09c0-.13.1-.32.1-.32C126,3.28,126,3.22,125.88,3.38ZM98,3c-.17.06-3.47,1.67-3.64,1.73h-.06A.33.33,0,0,0,94,5a1,1,0,0,0,0,.19c0,.07,0,.17.19,0l3.57-1.71A.54.54,0,0,0,98,3.28a.84.84,0,0,0,.1-.23C98.15,3,98.19,2.89,98,3ZM91.67,1.71a3.39,3.39,0,0,0-.33,1.87v0c0,.2.2.59.53.59.16,0,.39-.13.52-.65a.82.82,0,0,0,0-.27c0-.06,0-.13-.1,0-.1.33-.43.56-.69.17a1.66,1.66,0,0,1,0-1.28,3.21,3.21,0,0,0,.13-.39C91.87,1.58,91.77,1.52,91.67,1.71Zm3.7-1a3.22,3.22,0,0,0-.46,1.87A3.06,3.06,0,0,0,93.57.86c-.06,0-.23,0-.23.26a1.71,1.71,0,0,0,0,.56v0a2.63,2.63,0,0,0,.43.3s.1,0,.1,0,.06-.2.16-.1a2.9,2.9,0,0,1,.82,1.34c0,.1.16.13.16,0,.07-.4.1-1.09.14-1.31s.19-.89.55-.59a.64.64,0,0,1,.17.16c.06.1.16.23.22.1a1,1,0,0,0,.07-.62C96.16.86,95.7.27,95.37.66ZM99.79.37a2.9,2.9,0,0,0-.29,1.41h0c0,.16.1.46.36.46s.3-.1.4-.46a.66.66,0,0,0,0-.2c0-.06,0-.1-.07,0s-.32.4-.49.1a1.43,1.43,0,0,1,.07-1,2.38,2.38,0,0,1,.1-.3C99.89.27,99.86.21,99.79.37Zm25.44,0-4.16,2.39c-.17.1-.2.13-.23.26a1,1,0,0,0,0,.2h0c0,.06,0,.16.2,0L125,.86a.54.54,0,0,0,.26-.23.84.84,0,0,0,.1-.23C125.42.3,125.45.21,125.23.34Zm8,.42a.9.9,0,0,1,.2.66l-.43-.2h0c-.13-.06-.2-.13-.13-.23C133,.7,133.11.7,133.21.76ZM132.62.6h0c-.17.23-.27.82-.07,1a2.91,2.91,0,0,0,.56.3,15.1,15.1,0,0,1-3.57,2.55c-.13.1-.13.16,0,.16a8.83,8.83,0,0,0,3-1.67c.66-.55.62-.59.79-.94a.94.94,0,0,1,.29.26c.07.09.13.16.16.06a.58.58,0,0,0-.22-.72A1.53,1.53,0,0,0,133.44.4C133.38.3,133.05,0,132.62.6ZM129.25.37a3.77,3.77,0,0,0-.49,2A3.25,3.25,0,0,0,127.32.57c-.06,0-.23,0-.23.29s0,.49.07.59h0c.1.1.4.3.43.33s.1,0,.13,0,.07-.2.16-.1a2.88,2.88,0,0,1,.86,1.4c0,.14.16.14.19,0,.07-.42.1-1.14.13-1.37s.2-.95.59-.63a1.77,1.77,0,0,1,.2.17c.1.1.2.23.23.1a1.18,1.18,0,0,0,.06-.66C130.07.57,129.58-.06,129.25.37ZM107,6.85a3.39,3.39,0,0,0-.33,1.87c0,.19.2.59.53.59.16,0,.39-.13.52-.66a1,1,0,0,0,0-.26c0-.06,0-.13-.1,0-.09.33-.42.56-.68.16,0-.06-.23-.42,0-1.27v0a3.21,3.21,0,0,0,.13-.39C107.16,6.72,107.06,6.66,107,6.85Zm2.75-1.77-.43.59v.07l.76.56h.06l.43-.59V5.64l-.76-.56Zm1.7-3c-.16.1-6.48,3.54-6.68,3.64s-.23.13-.26.26a.77.77,0,0,1-.06.23l0,0c0,.1-.07.2.2,0,.09,0,6.44-3.5,6.58-3.6s.22-.13.29-.26.06-.16.1-.26S111.67,1.94,111.41,2.07ZM106.86.24a3.77,3.77,0,0,0-.49,2A3.27,3.27,0,0,0,104.93.44c-.07,0-.23,0-.23.29s0,.49.07.59h0c.1.1.4.29.43.33s.1,0,.13,0,.07-.19.16-.09a2.82,2.82,0,0,1,.85,1.4c0,.13.17.13.2,0,.07-.42.1-1.14.13-1.37s.2-.95.59-.63a1.77,1.77,0,0,1,.2.17c.1.1.19.23.23.1a1.18,1.18,0,0,0,.06-.66C107.68.44,107.19-.19,106.86.24Zm4.19,8.54c.2.4-.72.92-.85,1s-.33-.86-.39-1,0-.43.36-.59S110.86,8.39,111.05,8.78ZM112.33.11c0,.1-.26.69-.26.69.06.36,1.24,8.41,1.27,8.9s.2.92-1.18,1.15a1.65,1.65,0,0,1-1.5-.53,1.78,1.78,0,0,0,.82-1.64c-.13-1.6-1-1.6-1.21-1.53s-.72.32-.86,1.44a4,4,0,0,0,.27,1.4c-.66.36-2.69,1.35-4.09,1-.37-.06-1.35-.16-1.77-2-.2-.79-.53-4.09-.53-4.09s-.26-2.52-.45-3.47c-.07-.33-.2-.92-.27-1.15s-.1-.23-.16-.1a1,1,0,0,0-.16,1c.13.65.42,2.09.55,3.17.07.62.4,3.64.43,4s0,3.14,2.09,3.53a5.58,5.58,0,0,0,3-.42c.56-.2,1.77-.82,1.77-.82a1.88,1.88,0,0,0,2.22,1,1.68,1.68,0,0,0,1.44-1.14A3.93,3.93,0,0,0,113.77,9h0c0-.26-1-6.84-1-6.84s.43.42.53.49.16,0,.13-.1-1-2.29-1-2.39S112.36,0,112.33.11Zm2.42,0c0,.1-.29.75-.29.75a4.22,4.22,0,0,0,.09.43c.13,1,.92,6.61,1.15,8.38.1.88.2,1.67.2,2.09,0,.13,0,.2.09.07a2.58,2.58,0,0,0,.2-1.08A13.94,13.94,0,0,0,116,8.19c0-.16-.85-6-.85-6s.42.42.52.49.16,0,.13-.1-1-2.29-1-2.39S114.78,0,114.75.11Zm3.93.39a.88.88,0,0,1,.19.66h0l-.42-.2c-.13-.07-.2-.13-.13-.23C118.48.44,118.58.44,118.68.5Zm-.56-.13c-.16.23-.26.82-.06,1a3,3,0,0,0,.55.3,6.37,6.37,0,0,1-2.35,1.86v0c-.17.1-.13.16,0,.16a4.44,4.44,0,0,0,1.84-.85,3,3,0,0,0,.81-1l.3.26c.07.09.13.16.16.06a.58.58,0,0,0-.23-.72,1.5,1.5,0,0,0-.16-1.18C118.87.08,118.55-.25,118.12.37Z"/><path class="cls-3" d="M100.08,47.71a2.14,2.14,0,0,1-.1.22c0,.09,0,.19.1.09a.76.76,0,0,1,.25-.28,1.21,1.21,0,0,1,.78-.18,2.44,2.44,0,0,1,.71.21s-1.09.6-1.24.69-.19.12-.16.22.13.09.22.06c.41-.16.56-.12.9-.28l0,0a2.69,2.69,0,0,0,.69-.47.18.18,0,0,0,.12,0,1.07,1.07,0,0,0,.25-.56c0-.06-.31-.09-.4-.13-.28-.06-.6-.21-.91-.25A1.19,1.19,0,0,0,100.08,47.71Zm10-.37s-.07,0-.1.09a4.07,4.07,0,0,0-.15.53c0,.06,0,.06.09,0s.22-.12.34-.15c.53-.19,3.71-1.25,4.37-1.5l-.06,0c.06,0,.09,0,.12-.09a4.83,4.83,0,0,1,.19-.5c0-.06,0-.06-.07-.06C114.08,46,110.74,47.06,110.09,47.34Zm11.91-2-.16.87a1.22,1.22,0,0,0,0,.47c.09.56.25,1.16.34,1.72.25,1.24.5,2.46.72,3.64a22.22,22.22,0,0,1,.37,2.75c0,.15.1.15.13,0a4.91,4.91,0,0,0,.15-1.5,16.23,16.23,0,0,0-.34-2.34c-.19-1-.44-2.12-.62-3.05a25.32,25.32,0,0,1-.47-2.59c0-.08,0-.1-.07-.11S122,45.23,122,45.31Zm0-.15h0Zm-19.86,8.51a3.88,3.88,0,0,1-1.62-.6c.12-.21.4-.74.74-.74S101.73,53,102.17,53.67ZM119,45.09c-.15.28-.5.84-.53.91a2,2,0,0,0,.41.71c.06.47.22,1.41.4,2.37.35,1.5.66,3.15.91,4.46a2.58,2.58,0,0,1-1.66.63l.07-.07c-.94,0-1.5-.31-1.31-1.18a1.79,1.79,0,0,1,.65.12c.06,0,.06,0,.1,0,.15-.28.31-.56.53-.93.09-.13.06-.13-.07-.13a11.81,11.81,0,0,1-2.27-.12c-2.75-.47-3.24-1.12-4.18-1.25a1.73,1.73,0,0,0-1.62,1.34c-.09.22.09.28.22.16a1.65,1.65,0,0,1,1.12-.35,10.65,10.65,0,0,1,2.87.66,17.93,17.93,0,0,1-4,1.18,14.18,14.18,0,0,1-6.49-.06,4.81,4.81,0,0,1-2.52-1.68c-.56-.72-1.28.93-1.56,1.43s-.38.72-1,.84c-1.09.1-1.59-.9-2-1.87-.32-.78-.72-2.59-1-3.55-.06-.16-.09-.06-.09,0a5.47,5.47,0,0,0-.16.81,20.41,20.41,0,0,0,.65,2.59,2.44,2.44,0,0,1-1.68,1,4,4,0,0,1-1.43.09c-.25-.06-.28-.31-.35-.31s-.09.06-.15.25-.13.75.12,1c.47.43,2.18-.07,2.84-.44a1.8,1.8,0,0,0,.78-1.09c.37,1.21.87,2.62,2.15,2.59A1.84,1.84,0,0,0,100.3,54c.34.53.87.69,2.49.94.16,0,.19,0,.28-.66a9.79,9.79,0,0,0,4.65.66,19.56,19.56,0,0,0,5.48-1.13c1.56-.65,2.56-1.15,3.84-.9a2.43,2.43,0,0,0,0,1.78c.22.28.65.62,1.68.46a3,3,0,0,0,1.44-.59c.34-.34.68-.75.21-3.12-.18-.9-.37-1.87-.53-2.55s-.28-1.37-.4-2.09c.19-.19.5-.5.47-.53a3.5,3.5,0,0,1-.75-1.16c0-.06,0-.09-.06-.09A.15.15,0,0,0,119,45.09Zm-22.29-.41a1,1,0,0,1,.23.65c0,.1,0,.24,0,.25l-.23-.09a4.86,4.86,0,0,0-.57-.23c-.13,0,0-.23,0-.23a1.39,1.39,0,0,1,.22-.29l.13-.09C96.53,44.63,96.65,44.6,96.71,44.68Zm-.08-.61a1.67,1.67,0,0,0-1,1.17c-.08.27,0,.43.12.52a3.27,3.27,0,0,0,.88.32,7.7,7.7,0,0,1-2,1.77c-.3.17-.24.36.12.19a4.64,4.64,0,0,0,2.35-1.85l.27.07c.17.05.13.06.22-.2a1.78,1.78,0,0,0,.08-.27l-.41-.14,0-.14a2.38,2.38,0,0,0-.11-1C97,44.16,96.86,44,96.63,44.07Zm20.78-.79c0,.07-.06.16-.09.22s0,.19.09.1a.77.77,0,0,1,.25-.28,1.16,1.16,0,0,1,.78-.19,2.45,2.45,0,0,1,.72.22s-1.09.59-1.25.68-.18.13-.15.22.12.1.22.06c.4-.15.56-.12.9-.28l0,0a2,2,0,0,0,.68-.47.19.19,0,0,0,.13,0,1.12,1.12,0,0,0,.25-.56c0-.06-.31-.09-.41-.12a7.88,7.88,0,0,0-.9-.25A1.2,1.2,0,0,0,117.41,43.28Zm6.18-.3a.37.37,0,0,1,.12.24c-.09.22-.75.47-1,.53,0,0-.31.07-.28,0v0a2.1,2.1,0,0,1,.5-.68C123.15,42.85,123.37,42.79,123.59,43Zm-.66-.41a6.49,6.49,0,0,0-.84,1.18,1.62,1.62,0,0,1-.47-.18c-.15-.1-.25.06-.31.18a5.3,5.3,0,0,0-.34.72l-.09.25c0,.13,0,.16.12.06s.28-.65.41-.59v0a1.81,1.81,0,0,0,1.93-.19,1.34,1.34,0,0,0,.65-1.34.51.51,0,0,0-.46-.37A.93.93,0,0,0,122.93,42.57ZM81.38,57.09c-.07,0-.07,0-.1.1s-.09.34-.12.46,0,.07.06,0,.22-.12.31-.15h0c.53-.22,2.93-1.12,3.59-1.37,0,0,.06,0,.09-.1s.09-.31.13-.43,0-.07-.07-.07C84.55,55.88,82,56.81,81.38,57.09Zm6.79-.53s-.06,0-.09.1-.1.34-.16.47,0,.06.09,0a1.3,1.3,0,0,0,.31-.16c.54-.22,2.94-1.12,3.59-1.37h0s.09,0,.09-.1a3.68,3.68,0,0,0,.13-.43c0-.06,0-.06-.06-.06C91.35,55.35,88.82,56.28,88.17,56.56Zm-3.4-5.23c0,.37,0,.78,0,1.09a4.66,4.66,0,0,1-2.21.22s0,0,0,0a4.43,4.43,0,0,1,2.27-1.31Zm4.33-3.15a4.81,4.81,0,0,0-.15.87v.13H89a12.93,12.93,0,0,0,1.22,3.4c.12.31-.16.49-.56.4a2.11,2.11,0,0,1-1.56-1.78c-.16-.78-.25-1.68-.41-2.49,0-.28-.06-.31-.15-.06a4.55,4.55,0,0,0-.22.68v.13c.09.62.28,2,.46,2.8-.28.69-1.55,1.72-2.36.91-.44-.5-.35-1.81-.32-3.43,0-.13,0-.22-.09-.06s-.09.25-.19.43,0,.07,0,.1,0,.31-.06.43a5.31,5.31,0,0,0-2.06,1.12,4.49,4.49,0,0,0-.78,1.63c-.06.18,0,.25.16.25,1.78.15,1.81-.1,2.71-.81,0,1.24.59,1.65,1.25,1.65a2.35,2.35,0,0,0,2-1.65,2.87,2.87,0,0,0,1.72,1.24c.53,0,.71-.47.78-.93.28-1.5-.32-2.12-.78-3.4-.16-.47-.28-1-.41-1.5C89.26,48.12,89.17,47.93,89.1,48.18Zm-1.27-2.43s.06.12.09.22.06.15,0,.18a.55.55,0,0,1-.25.13.8.8,0,0,1-.25,0c-.25,0-.31-.19-.31-.44,0-.06,0-.28-.06-.28a.13.13,0,0,0-.13.1c0,.06,0,.12,0,.18s0,.16-.06.25a.5.5,0,0,1-.13.25.71.71,0,0,1-.37.28.46.46,0,0,1-.44,0c-.09-.06-.09-.15-.09-.28a.65.65,0,0,1,.09-.37c.07-.1.07-.13,0-.13s-.21.16-.28.31a1.55,1.55,0,0,0-.09.53.69.69,0,0,0,.19.41.5.5,0,0,0,.37.12.8.8,0,0,0,.47-.15,1.32,1.32,0,0,0,.34-.44.61.61,0,0,0,.66.25l0,0a.58.58,0,0,0,.4-.25,1.93,1.93,0,0,0,.22-.43c.06-.29.09-.85-.09-.94ZM84.65,44.5s-.07,0-.1.09a3.6,3.6,0,0,1-.15.47c0,.06,0,.06.09,0a1.47,1.47,0,0,0,.31-.15c.5-.22,2.93-1.12,3.59-1.41l0,0s.09,0,.09-.1.1-.31.13-.43,0-.07-.07-.07C87.83,43.28,85.3,44.22,84.65,44.5Zm-19.24,15s-.07,0-.1.09a3.2,3.2,0,0,0-.18.53c0,.06,0,.06.09,0s.25-.12.34-.16c.53-.18,3.71-1.24,4.37-1.52,0,0,.09,0,.09-.1s.13-.37.19-.49,0-.07-.06-.07C69.4,58.08,66.06,59.18,65.41,59.46Zm1.93-3.3c-.12.19-.28.47-.37.65l0,0c-.06.07-.06.13,0,.16l.62.34c.07,0,.13,0,.16,0a5.63,5.63,0,0,0,.37-.62c.07-.06.07-.13,0-.16s-.5-.31-.68-.4S67.37,56.1,67.34,56.16ZM78.17,50.6a5.35,5.35,0,0,0-.1.75c0,.1,0,.13.06.16l0,0a5.64,5.64,0,0,1,1.25,1.53.19.19,0,0,1,0,.18,4.75,4.75,0,0,1-1.78,2.25,5.31,5.31,0,0,1-4.24.34c-.21-.06-.4.13-.09.28a7.05,7.05,0,0,0,4.3.44A3.84,3.84,0,0,0,79.72,53a3.47,3.47,0,0,0-1.4-2.46C78.2,50.42,78.2,50.45,78.17,50.6Zm-4.47-.77c-.06.22-.19.66-.22.85s0,.09,0,.12v0a3.15,3.15,0,0,1,1.09,1.37c-1.28.87-4.49,1.53-8,1.75-3.74.22-7.57.12-10.22-1.5-.63-.34-.63-.19-.32.19a5.69,5.69,0,0,0,3,1.93,28.64,28.64,0,0,0,7.6.37,21.55,21.55,0,0,0,7.2-1.46A1.64,1.64,0,0,0,75,52.27a2.5,2.5,0,0,0-1.1-2.47C73.73,49.68,73.73,49.71,73.7,49.83Zm-5.34-1.71s.06.12.09.22.07.15,0,.18a.51.51,0,0,1-.24.13.84.84,0,0,1-.25,0c-.25,0-.32-.19-.32-.44,0-.06,0-.28-.06-.28s-.09,0-.12.1,0,.12,0,.18a1.49,1.49,0,0,0-.07.25.58.58,0,0,1-.12.25.77.77,0,0,1-.38.28.39.39,0,0,1-.43,0c-.1-.06-.1-.15-.1-.28a.67.67,0,0,1,.1-.37c.06-.1.06-.13,0-.13a.46.46,0,0,0-.28.31,1.56,1.56,0,0,0-.1.53.79.79,0,0,0,.19.41.51.51,0,0,0,.38.12.77.77,0,0,0,.46-.15,1.24,1.24,0,0,0,.35-.44.59.59,0,0,0,.65.25l0,0a.82.82,0,0,0,.62-.68c.07-.28.1-.85-.09-.94Zm7.25-.51s-.06,0-.09.09-.1.35-.16.47,0,.06.09,0a1.54,1.54,0,0,0,.32-.15c.53-.22,2.93-1.12,3.58-1.37h0s.1,0,.1-.1.09-.31.12-.43,0-.07-.06-.07C78.79,46.39,76.26,47.33,75.61,47.61ZM32.8,56.67s-.06,0-.09.09-.1.35-.16.47,0,.06.1,0a1.75,1.75,0,0,0,.31-.15h0c.53-.22,2.93-1.13,3.58-1.38,0,0,.1,0,.1-.09s.09-.31.12-.44,0-.06-.06-.06C36,55.45,33.46,56.39,32.8,56.67ZM29.62,55.1c-.12.22-.28.5-.43.72-.22-.16-.5-.31-.69-.44s-.16-.06-.22,0l0,0c-.12.19-.28.44-.41.66s0,.15.1.22.53.31.72.4.09,0,.15-.06a3.14,3.14,0,0,0,.41-.62c.28.18.53.31.74.43a.11.11,0,0,0,.16,0c.12-.16.31-.47.41-.62s0-.16-.07-.22-.5-.31-.68-.44S29.65,55,29.62,55.1Zm-8.45-3.89a6,6,0,0,0-.37.65l0,0a.09.09,0,0,0,0,.16l.62.34c.07,0,.13,0,.16,0s.28-.44.37-.62.07-.13,0-.16-.49-.28-.68-.41S21.2,51.14,21.17,51.21Zm2.37-3.75c-.75.32-4.08,1.41-4.74,1.69,0,0-.06,0-.09.09a3.44,3.44,0,0,0-.19.53c0,.06,0,.06.1,0l.34-.15c.53-.19,3.71-1.25,4.36-1.53,0,0,.1,0,.1-.09a4.38,4.38,0,0,1,.18-.5C23.64,47.46,23.6,47.46,23.54,47.46Zm19.24,1.19a2.28,2.28,0,0,0-.19.53,3.53,3.53,0,0,0,.28.4,3.23,3.23,0,0,1,.59,2.47c0,.06,0,.15,0,.15.22,0,.35-.78.35-1.18a3.73,3.73,0,0,0-.91-2.37C42.87,48.59,42.81,48.56,42.78,48.65Zm1.93-1.06s-.06,0-.09.09-.1.35-.16.47,0,.06.09,0a1.54,1.54,0,0,0,.32-.15c.53-.22,2.93-1.13,3.58-1.38h0s.1,0,.1-.09.09-.31.12-.44,0-.06-.06-.06C47.89,46.37,45.36,47.31,44.71,47.59Zm8.14-1.93a4.34,4.34,0,0,0-.13.9,10.38,10.38,0,0,0,.28,1.9c.22,1.25.5,2.5.6,3.74a5.74,5.74,0,0,0,.18,1.44c.07.12.22-.41.22-.44a2.42,2.42,0,0,0,0-.47c0-.43,0-.84,0-1.28h0c0-.18,0-.34-.06-.52-.22-1.53-.53-3.06-.78-4.62a2.55,2.55,0,0,0-.1-.72C53,45.44,52.88,45.56,52.85,45.66ZM34.36,52.08h.06c.16,0,.31.56.75,1.25a3,3,0,0,1-1.37-.57c-.13-.09-.16-.09-.06-.21s.43-.5.62-.5ZM50,44.75a4.09,4.09,0,0,0-.47.88,1.36,1.36,0,0,0,.35.62c.34,2.15,1.09,5.67,1.21,6.48-.22.5-1.06.78-2,.35.5-.53.75-1,.59-1.28-.41-.78-3.09-1.25-3.52.62,0,.16.09.25.18.16.32-.38,1-.06,1.44.31-2.06.93-6,1.34-7.58.37-.71-.46-.81-1.49-1-2.62s-.49-2.83-.81-4.73c0-.13-.06-.22-.15,0s-.1.37-.22.74v.16c.31,1.87.65,3.77.94,5.49-.22.53-1.53.9-2.62.62a2.76,2.76,0,0,1-1.5-1.22c-.25-.37-.44-.28-.72-.09-.93.72-1,1.72-2.27,1.78-1.5.09-1.59-1.12-1.81-2.12-.09-.5-.25-1.62-.53-1.78-.13-.06-.19,0-.25.09a2,2,0,0,1-.41.75,1.39,1.39,0,0,1-.77.44c-.38.09-.47.06-.6-.16s-.34-.46-.43-.56a10.28,10.28,0,0,0-.19,1.06,3.8,3.8,0,0,1,.65,1.44v.06a5.49,5.49,0,0,1-3,2.12,14.36,14.36,0,0,1-7,.47,11.4,11.4,0,0,1-4.28-1.69c-.21-.15-.31-.22-.37-.12s.16.34.22.43a8.12,8.12,0,0,0,6.36,2.65c3.15.07,6.48-.62,8-2.89a2.35,2.35,0,0,0,.35-1.69,1.88,1.88,0,0,0,1.52-1.28c.41,1.56.31,2.68.91,3.34a2,2,0,0,0,2.06.37,2.56,2.56,0,0,0,1-.87c.16.59.91.87,2.31,1,.09,0,.16,0,.25-.56,1.25.37,2.81.15,3.21-1a2.19,2.19,0,0,0,1.9,1.81,13,13,0,0,0,7.39-1.12,1.66,1.66,0,0,0,2.84-.07,3.84,3.84,0,0,0,.12-2.21c-.25-1.37-.65-3.18-.87-4.74.19-.28.47-.56.41-.72a3.54,3.54,0,0,1-.72-1.06c0-.06,0-.06-.06-.06l-.07,0Zm-13.75.35s-.06,0-.09.09a3.28,3.28,0,0,1-.16.47c0,.06,0,.06.1,0a1.53,1.53,0,0,0,.31-.16c.53-.22,2.93-1.12,3.58-1.37h0s.09,0,.09-.09l.12-.44c0-.06,0-.06-.06-.06C39.47,43.88,37,44.81,36.29,45.1Zm18.18-1.81a.39.39,0,0,1,.12.25c-.09.22-.74.47-1,.53,0,0-.32.06-.28,0a2.65,2.65,0,0,1,.49-.69v0C54,43.16,54.25,43.1,54.47,43.29Zm-.69-.41a6.56,6.56,0,0,0-.84,1.19,1.66,1.66,0,0,1-.47-.19c-.15-.09-.25.06-.31.19a5.79,5.79,0,0,0-.34.71l-.09.25c0,.13,0,.16.12.07v0c.16-.19.31-.66.4-.6a1.83,1.83,0,0,0,1.94-.18A1.35,1.35,0,0,0,54.84,43a.5.5,0,0,0-.46-.38A1,1,0,0,0,53.78,42.88ZM48.61,43c-.06.09-.1.22-.16.31s.06.16.16.1.31-.44.56-.47a3.15,3.15,0,0,1,1.21.15s-1.15.63-1.27.66a.12.12,0,0,0,0,.18c0,.13.12.1.21.07a3.19,3.19,0,0,0,.69-.25c.12-.06,1.56-.88,1.09-1.09l.06,0a3.69,3.69,0,0,0-1.21-.28A1.16,1.16,0,0,0,48.61,43Zm143.9,34.64s-.07,0-.1.1a4,4,0,0,1-.15.46c0,.07,0,.07.09,0a1.47,1.47,0,0,0,.31-.15c.5-.22,2.93-1.12,3.59-1.37h0s.09,0,.09-.1.1-.31.13-.43,0-.07-.07-.07C195.69,76.47,193.16,77.4,192.51,77.68Zm7.35-7.45h0c.19,0,.25.72.53,1.15a2.94,2.94,0,0,1-1-.43c-.1-.06-.13-.1-.1-.16.13-.22.41-.56.59-.59Zm6.55-1.46a1.69,1.69,0,0,0-1.5,1.24c-.06.16,0,.28.16.19,1.19-.59,2.12-.22,3.8.56a15.38,15.38,0,0,1-4.45.75,6.76,6.76,0,0,1-2.22-.25,2.36,2.36,0,0,1-1.62-1c-.16-.22-.31-.62-.53-.68s-.62.24-.87.56a2.58,2.58,0,0,1-.94,1.06c-.84.4-2,.31-2.24-.07-.19-.18-.22-.49-.38-.87-.09-.15-.09-.12-.12,0a3.9,3.9,0,0,0-.13.94,6.82,6.82,0,0,1,.66,2.37,3.26,3.26,0,0,1-2.65,1.34c-1.31,0-2.34-.56-2.25-1.75a6.88,6.88,0,0,1,.44-1.62c.06-.19-.09-.34-.22-.13a6.45,6.45,0,0,0-.59,1.75c-.4,1.87,1,2.93,2.81,2.74a3.26,3.26,0,0,0,2.49-1.4,3.88,3.88,0,0,0,.28-2.09,2.59,2.59,0,0,0,2.5-.87c.09.65,1.09.93,2.15,1.09.12,0,.18,0,.28-.62,2.12.93,4.58.5,6.58-.16a5.91,5.91,0,0,1,3.92-.37c.1,0,.13,0,.19-.07l.53-.77c.06-.13.06-.16-.06-.16a7.46,7.46,0,0,1-2.28-.25,22,22,0,0,1-3.49-1.4A.72.72,0,0,0,206.41,68.77Zm-13.15-.69a6.41,6.41,0,0,0-.38.65l0,0c-.06.06-.06.12,0,.15s.44.25.63.34.12,0,.15,0a5.73,5.73,0,0,0,.38-.62c.06-.06.06-.12,0-.16s-.5-.31-.69-.4S193.29,68,193.26,68.08Zm3.08-2.52a2.22,2.22,0,0,0-.19.52,3.22,3.22,0,0,0,.28.41A3.25,3.25,0,0,1,197,69c0,.07,0,.16,0,.16v0c.22,0,.34-.78.34-1.18a3.78,3.78,0,0,0-.9-2.37C196.43,65.49,196.37,65.49,196.34,65.56Zm9.45,0a.92.92,0,0,0-.44.43c0,.09-.09.16-.12.25s.18.09.25,0a1.19,1.19,0,0,1,.93-.37c.28,0,.56.12.87.18,0,0-.56.32-.65.35a5.24,5.24,0,0,0-.53.25c-.06,0-.25.06-.25.15s0,.25.16.22a4.51,4.51,0,0,0,1.12-.4,4.77,4.77,0,0,0,.65-.41c.1-.06.53-.56.25-.59s-.78-.19-1.18-.28A1.17,1.17,0,0,0,205.79,65.56Zm7.42-.9L213,65s0,.06,0,.1a1.4,1.4,0,0,1,.09.4c-.22.2-.45.24-.62.1a.57.57,0,0,1-.14-.48c0-.16,0-.22-.12-.11s-.13.14-.14.22c-.07.52-.29.76-.69.78s-.44-.16-.26-.66c0-.1,0-.22-.15,0-.38.76-.15,1.18.23,1.24a.86.86,0,0,0,.88-.61.63.63,0,0,0,.71.24c.34-.09.42-.25.52-.53a1.77,1.77,0,0,0,0-1C213.26,64.59,213.22,64.62,213.21,64.66ZM198,65.18s-.06,0-.09.09a3.75,3.75,0,0,1-.16.47c0,.06,0,.06.1,0a1.75,1.75,0,0,0,.31-.15l0,0c.53-.22,2.46-1,3.12-1.28,0,0,.09,0,.09-.09s.09-.32.13-.44,0-.06-.07-.06C200.67,64.09,198.62,64.9,198,65.18Zm16.93-2.46c-.12.18-.31.43-.47.68,0,0,0,0,0,.1s.16.34.32.65l0,0c.19,1.9.63,3.43,1.19,6.61-.59.5-1.84.44-2.09,0-.13-.25-.28-.12-.34.28a1,1,0,0,0,.59,1.09c-1,2.47-3.62,3.37-6.33,2.09-.28-.09-.41.16-.16.28,2.53,1.37,5.8,1.94,6.93-2.24A2.74,2.74,0,0,0,215.7,72c1-.63.53-2.53.34-3.59l-.71-3.86c.15-.19.28-.35.43-.56s.07-.1,0-.19c-.18-.31-.46-.72-.68-1.06C215,62.62,215,62.62,214.89,62.72Zm2.86-.36s-.06.07-.07.16l-.17.87a1.23,1.23,0,0,0,0,.47c.08.56.22,1.15.34,1.72.23,1.25.46,2.47.65,3.63a23.33,23.33,0,0,1,.33,2.75c0,.15.09.15.12,0a5.61,5.61,0,0,0,.19-1.5,17.23,17.23,0,0,0-.31-2.34c-.16-1-.39-2.13-.57-3.06s-.34-1.76-.42-2.6c0-.09-.06-.13-.09-.13Zm-8,1.23c-.06,0-.06,0-.1.09s-.09.35-.12.47,0,.06.06,0,.22-.12.31-.15h0c.54-.22,2.94-1.13,3.59-1.37,0,0,.06,0,.09-.1s.1-.31.13-.43,0-.07-.06-.07C213,62.37,210.43,63.31,209.78,63.59Zm9.32,3.73a.37.37,0,0,1,.12.25c-.09.21-.74.46-1,.53,0,0-.31.06-.28,0l0,0a3.78,3.78,0,0,1,.52-.69C218.66,67.19,218.88,67.13,219.1,67.32Zm-.66-7.41a6.23,6.23,0,0,0-.84,1.19,1.87,1.87,0,0,1-.46-.19c-.16-.09-.25.06-.32.19a5.17,5.17,0,0,0-.34.71l-.09.25c0,.13,0,.16.12.07v0c.16-.18.31-.65.41-.59a1.83,1.83,0,0,0,1.93-.18,1.38,1.38,0,0,0,.66-1.35.52.52,0,0,0-.47-.37A1,1,0,0,0,218.44,59.91ZM160.77,75c-.07,0-.07,0-.1.09s-.09.35-.12.47,0,.06.06,0,.22-.12.31-.15h0c.53-.22,2.93-1.13,3.59-1.38,0,0,.06,0,.09-.09s.1-.31.13-.44,0-.06-.06-.06C164,73.78,161.42,74.72,160.77,75Zm12.78-1.93c-.13.22-.28.5-.44.72-.22-.16-.5-.32-.68-.44s-.16-.06-.22,0l0,0c-.13.19-.28.44-.41.65s0,.16.1.22.53.31.71.41.1,0,.16-.07a2.89,2.89,0,0,0,.4-.62c.28.19.53.31.75.44a.12.12,0,0,0,.16,0,7.33,7.33,0,0,0,.4-.63c.07-.12,0-.15-.06-.22s-.5-.31-.68-.43S173.58,73,173.55,73.07Zm2.52-.16s-.06,0-.09.1-.09.34-.15.46,0,.07.09,0a1.47,1.47,0,0,0,.31-.15c.5-.22,2.93-1.12,3.59-1.37h0s.09,0,.09-.1.09-.31.13-.43,0-.07-.07-.07C179.25,71.7,176.73,72.63,176.07,72.91Zm-13.77-3.3a.11.11,0,0,1,.09,0c.15.15.31.65.75,1.28a2.85,2.85,0,0,1-1.44-.63.17.17,0,0,1-.06-.15c.12-.19.44-.56.66-.56Zm13.84-1.81a1.66,1.66,0,0,0-1.47,1.34c0,.09.06.22.19.09.9-.78,2.56,0,4,.5-.78.28-2,.69-2.68.91a2.6,2.6,0,0,1-2,0,2.41,2.41,0,0,0,.22-.66c0-.25-.06-.12-.22,0a5.94,5.94,0,0,1-2.46,1.16,13.82,13.82,0,0,1-5.52.24,4.82,4.82,0,0,1-3.06-1.71c-.21-.25-.37-.69-.65-.69s-.84.66-1,1.25a1.21,1.21,0,0,0,.16,1.25,14.75,14.75,0,0,1-4,2.65c-.25.12-.16.19.06.19,1.15-.1,3.77-1,4.21-2.62a6.93,6.93,0,0,0,1.84.53c.09,0,.15,0,.28-.56a6.91,6.91,0,0,0,3.77.87c2.34,0,5-.5,6.17-1.5a2.42,2.42,0,0,0,1.16.66,7.54,7.54,0,0,0,3-.85,5.2,5.2,0,0,1,3.77-.53s.06,0,.06,0c.19-.34.32-.53.56-1,0-.07,0-.1-.06-.1a13.33,13.33,0,0,1-2.65-.21c-2.21-.47-2.77-1.25-3.58-1.25ZM183,64.18l-.19.35s0,.07,0,.11a1.12,1.12,0,0,1,.09.39c-.21.21-.45.25-.62.1a.56.56,0,0,1-.14-.48c0-.16,0-.22-.11-.1s-.14.13-.15.21c-.06.53-.29.76-.69.79-.25,0-.44-.16-.26-.66,0-.11,0-.22-.15,0-.38.75-.15,1.17.24,1.23a.84.84,0,0,0,.88-.61.62.62,0,0,0,.71.24c.34-.09.41-.24.51-.52a1.73,1.73,0,0,0,0-1C183.07,64.11,183,64.15,183,64.18Zm1.88-1.93c-.16.22-.22.34-.38.59-.06.1-.06.1,0,.22s.25.47.35.66l0,0c.37,1.94.49,2.75,1.12,5.93-.53.37-1.56.5-1.81,0-.13-.22-.28-.09-.34.31-.07.66.18,1,.65,1.06a4,4,0,0,1-5.77,2.4c-.28-.09-.4.16-.15.28,2.59,1.34,5.24,1.65,6.36-2.68a1.72,1.72,0,0,0,1.06-.34c.78-.59.31-2.37.09-3.43l-.68-3.31.37-.53c.06-.09.06-.09,0-.18-.22-.28-.47-.66-.69-1C185,62.16,185,62.16,184.9,62.25Zm2.62-.16-.13.88a1.23,1.23,0,0,0,0,.47c.09.59.22,1.15.34,1.71.25,1.28.53,2.46.75,3.65a24,24,0,0,1,.38,2.74c0,.16.09.16.12,0a5.54,5.54,0,0,0,.16-1.49,16.44,16.44,0,0,0-.35-2.34c-.18-1-.43-2.12-.62-3.06s-.37-1.74-.47-2.59c0-.09-.06-.12-.09-.12l0,0S187.52,62,187.52,62.09Zm-7.52,1s-.06,0-.09.1a2.83,2.83,0,0,1-.16.46c0,.07,0,.07.1,0a2.29,2.29,0,0,0,.31-.16l0,0c.5-.22,2.46-1,3.12-1.28,0,0,.09,0,.09-.09s.09-.31.13-.44,0-.06-.07-.06C182.71,62,180.66,62.87,180,63.12Zm8.89,3.73a.39.39,0,0,1,.12.25c-.09.22-.75.47-1,.53,0,0-.32.06-.29,0l0,0a3.32,3.32,0,0,1,.53-.69C188.45,66.72,188.67,66.66,188.89,66.85Zm-.66-.41a6.56,6.56,0,0,0-.84,1.19,1.66,1.66,0,0,1-.47-.19c-.15-.09-.25.06-.31.19a5.3,5.3,0,0,0-.34.72l-.09.25c0,.12,0,.15.12.06l0,0c.19-.19.31-.66.44-.6a1.81,1.81,0,0,0,1.93-.18,1.34,1.34,0,0,0,.65-1.34.5.5,0,0,0-.46-.38A1,1,0,0,0,188.23,66.44ZM123.7,74c-.78.31-3.4,1.25-4.09,1.53-.06,0-.06,0-.09.09s-.09.35-.13.47,0,.06.07,0,.21-.12.31-.15c.53-.22,3-1.13,3.74-1.38,0,0,.06,0,.09-.09s.1-.31.16-.44S123.76,74,123.7,74Zm5.64,1.37c-.06,0-.06,0-.09.1a2.92,2.92,0,0,0-.13.46c0,.07,0,.07.06,0s.22-.13.32-.16h0c.53-.22,2.93-1.12,3.58-1.37,0,0,.06,0,.1-.09l.12-.44c0-.06,0-.06-.06-.06C132.52,74.12,130,75.05,129.34,75.33Zm3.77-8.82a2.45,2.45,0,0,0-.19.53,3.48,3.48,0,0,0,.29.41,3.28,3.28,0,0,1,.59,2.46c0,.06,0,.15,0,.15.22,0,.34-.77.34-1.18a3.72,3.72,0,0,0-.9-2.37A.07.07,0,0,0,133.11,66.51Zm-11.25,0a2.67,2.67,0,0,0-.56.78c-.16.31-.53,1-.35,1.31s.69.25,1,.31-.31.31-.44.38a1.84,1.84,0,0,1-1.15.12c-.12,0-.41-.22-.5-.09-.25.28,0,.37.28.44v0c.66.18,1.47.43,2-.19.25-.31.62-1,.34-1.4s-1,0-1.09-.35.37-.84.59-.65.13.18.22.25.19-.19.22-.25.31-.47.15-.63A.42.42,0,0,0,121.86,66.54Zm17.21,4.06a3.36,3.36,0,0,1-1.44-.41c-.09-.06-.09-.09-.06-.13.25-.43.5-.65.69-.65h.09C138.69,69.47,138.88,70.06,139.07,70.6ZM130,64.3c-.12.37-.18.53-.28.81,0,.06,0,.09,0,.19.44,2.21,1,4.83,1.34,6.73-.06.84-1.15.53-1.56-.09a6.22,6.22,0,0,1-.56-1.88c-.37-1.9-.68-3.74-1-5.58,0-.18-.07-.18-.1,0-.09.38-.12.53-.22.88,0,.06,0,.06,0,.15.25,1.59.6,3.21.78,4.37-1.37,1.34-4.8,2.09-7.42,2.27-3.58.25-7.32-.28-9.47-1.74-.25-.16-.38,0-.19.22.81.77,1.21,1.52,2.46,1.9a20.33,20.33,0,0,0,11.1-.07c1.68-.46,3.15-1.12,3.65-2a11,11,0,0,0,.47,2.09,1.69,1.69,0,0,0,1.65,1c.5,0,.84-.94.78-2.34.5.93,1.46,1.31,3.27,1.28,1.56-.1,2.24-.32,2.68-1.47a3.15,3.15,0,0,0,2.09.63c.19,0,.22-.1.31-.44s.06-.53-.09-1.16a8.66,8.66,0,0,0-.53-1.34c-.22-.4-.5-.43-.75-.28a3.28,3.28,0,0,0-.84,1.28,4.47,4.47,0,0,1-.59,1.22,3,3,0,0,1-1.78.53,4,4,0,0,1-2.81-.47,4.15,4.15,0,0,1-1.31-2.49c-.4-1.5-.78-3.28-.93-4.18a.13.13,0,0,0,0-.09l-.06,0A.42.42,0,0,0,130,64.3Zm5.36.9s-.06,0-.09.1a4,4,0,0,1-.15.46c0,.07,0,.07.09,0a1.47,1.47,0,0,0,.31-.15c.53-.22,2.93-1.12,3.59-1.4l0,0s.09,0,.09-.1.09-.31.13-.43,0-.07-.07-.07C138.5,64,136,64.92,135.32,65.2Zm-26.06,9.13a7,7,0,0,1-.44.72c-.21-.16-.5-.31-.68-.44s-.16-.06-.22,0l0,0c-.13.19-.28.44-.41.66s0,.15.1.21a6.47,6.47,0,0,0,.71.41c.07,0,.1,0,.16-.06a3.82,3.82,0,0,0,.41-.63,8.33,8.33,0,0,0,.74.44.11.11,0,0,0,.16,0c.12-.16.31-.47.4-.62s0-.16-.06-.22-.5-.31-.68-.44S109.29,74.27,109.26,74.33Zm-10.41.13s-.07,0-.1.09a4.92,4.92,0,0,1-.15.47c0,.06,0,.06.09,0a1.15,1.15,0,0,0,.31-.16h0c.5-.21,2.09-.87,2.75-1.12,0,0,.09,0,.09-.09s.1-.31.13-.44,0-.06-.07-.06Zm2.4-3.4a3.14,3.14,0,0,1-1.5-.31c-.09-.07-.12-.1-.09-.16.22-.47.47-.65.65-.62h.07C100.72,70,101,70.53,101.25,71.06ZM100,69.41l0,0c-.69,1.12-.69,2.06-.5,2.31a15.54,15.54,0,0,1-3.83,2.77c-.19.12,0,.31.15.25,1.53-.59,3.46-1.19,4-2.9a5.52,5.52,0,0,0,1.87.25c.19,0,.19-.09.28-.44s.1-.56-.12-1.18a4.9,4.9,0,0,0-.63-1.28C100.75,68.66,100.25,68.91,100,69.41Zm6.17,2.3c-.84.16-1.46-.06-1.4-.31s.28-.62.56-.62S106,71.18,106.14,71.71Zm1.62-3.49h0a7.69,7.69,0,0,0-.1,1c0,.06,0,.06.06.12a4,4,0,0,1,1,1.28,4.92,4.92,0,0,1-2,.94c-.35-.85-.84-1.84-1.41-1.84-.24,0-.53.21-.77.74-.38.85-.35,1.81.09,2.12a2.48,2.48,0,0,0,1.81,0,5.43,5.43,0,0,1-2.15,2.4,6.15,6.15,0,0,1-4.12.43c-.22,0-.22.19-.09.25,1.87.66,3.52.75,4.8,0a5,5,0,0,0,2-3.18,4.94,4.94,0,0,0,1.66-.78,2.09,2.09,0,0,0,.34-2,4.51,4.51,0,0,0-1.09-1.5C107.8,68.13,107.76,68.13,107.76,68.22Zm-4.7-.78-.1.22c0,.09,0,.19.1.09a.69.69,0,0,1,.25-.28,1.12,1.12,0,0,1,.78-.18,2.55,2.55,0,0,1,.71.21,11.3,11.3,0,0,1-1.25.69.26.26,0,0,0-.15.22c0,.09.12.09.22.06.4-.16.56-.12.9-.28l0,0a2.69,2.69,0,0,0,.69-.47.18.18,0,0,0,.12,0,1.11,1.11,0,0,0,.25-.56c0-.06-.31-.1-.4-.13a8.68,8.68,0,0,0-.91-.25A1.18,1.18,0,0,0,103.06,67.44Zm2.52-2.18s-.06,0-.09.09-.1.34-.16.47,0,.06.1,0a1.31,1.31,0,0,0,.31-.16l3.58-1.37h0s.1,0,.1-.09.09-.31.12-.44,0-.06-.06-.06C108.76,64,106.24,65,105.58,65.26ZM76.19,78.17c-.07,0-.07,0-.1.09s-.09.35-.12.47,0,.06.06,0,.22-.12.31-.15c.53-.22,2.93-1.12,3.59-1.37h0s.06,0,.09-.1.1-.31.13-.43,0-.07-.07-.07C79.37,77,76.84,77.89,76.19,78.17ZM85,74.84c-.13.21-.28.49-.44.71-.22-.15-.5-.31-.69-.43s-.15-.07-.21,0l0,0a6.61,6.61,0,0,0-.41.65.15.15,0,0,0,.09.22c.19.12.53.31.72.4s.12,0,.16-.06a2.89,2.89,0,0,0,.4-.62c.28.18.53.31.75.43a.1.1,0,0,0,.16,0,5.93,5.93,0,0,0,.4-.62c.06-.12,0-.16-.06-.22l-.69-.43C85,74.77,85,74.77,85,74.84Zm6-.29c-.74.32-3.27,1.25-3.92,1.53,0,0-.07,0-.1.1a4,4,0,0,1-.15.46c0,.07,0,.07.09,0a1.47,1.47,0,0,0,.31-.15c.5-.22,2.93-1.12,3.59-1.4l0,0s.09,0,.09-.1.1-.31.13-.43S91.06,74.55,91,74.55Zm-14.06-5a6,6,0,0,0-.37.65l0,0c-.06.06-.06.13,0,.16s.44.25.63.34.12,0,.15,0,.28-.44.38-.62.06-.13,0-.16-.5-.28-.69-.41S77,69.47,76.93,69.54Zm8.17-.82c-.12.44-.22.82-.22.85a6.29,6.29,0,0,1,.35.84h0a1.78,1.78,0,0,1-1.22.28c-.37,0-.4-.13-.53-.38a2.65,2.65,0,0,1-.22-.4c-.06-.13-.12-.09-.15,0-.07.34-.19.87-.19.9a3.83,3.83,0,0,1,.62,1.53,5.45,5.45,0,0,1-2.68,1.84,15.83,15.83,0,0,1-6.58.72,13.11,13.11,0,0,1-4.92-1.69c-.06-.06-.19-.12-.25-.06s0,.16.09.25c1.53,1.87,3.84,2.43,6.11,2.53A14.35,14.35,0,0,0,81.05,75a5.43,5.43,0,0,0,2.31-1.62,3.33,3.33,0,0,0,.46-1.65,1.94,1.94,0,0,0,1.41-.41,2.75,2.75,0,0,0,0-2.65C85.17,68.51,85.13,68.54,85.1,68.72Zm4.57-4.46-.18.35s0,.07,0,.11a1.12,1.12,0,0,1,.09.39c-.22.21-.45.24-.62.1a.57.57,0,0,1-.14-.48c0-.16,0-.22-.11-.1s-.14.13-.15.21c-.06.53-.29.76-.69.79s-.44-.16-.26-.66c0-.11,0-.22-.15,0-.38.75-.15,1.17.23,1.23a.83.83,0,0,0,.88-.61.64.64,0,0,0,.72.24c.34-.09.41-.24.51-.52a1.73,1.73,0,0,0,0-1C89.73,64.19,89.69,64.23,89.67,64.26Zm2-.43a8,8,0,0,0-.41.9,1.43,1.43,0,0,0,.25.5c.41,2.43.72,4.34,1.25,7l-.09,0c-.32.59-1.16.43-1.59-.1a8.28,8.28,0,0,1-1-2.49c-.16-.62-.31-1.28-.44-1.87,0-.25-.09-.28-.12-.06a7.92,7.92,0,0,0-.13,1c.16.78.35,1.44.5,2.06A2.57,2.57,0,0,1,88,71.84a4.51,4.51,0,0,1-1.18.13c-.34,0-.31-.28-.38-.28s-.12.09-.12.18c-.09.44-.19,1,.25,1.09a4.73,4.73,0,0,0,2.65-.56A1.82,1.82,0,0,0,90,71.22a4.33,4.33,0,0,0,1,2.15,1,1,0,0,0,1.68-.22,4.44,4.44,0,0,0,.06-2.93c-.31-1.62-.53-3-.81-4.61a4,4,0,0,0,.44-.69,8.32,8.32,0,0,1-.69-1.09C91.68,63.74,91.68,63.71,91.62,63.83ZM94,63.18s-.06.06-.06.15l-.16.87a1.23,1.23,0,0,0,0,.47c.09.56.25,1.16.37,1.72.25,1.24.5,2.46.72,3.61a22,22,0,0,1,.37,2.75c0,.15.1.15.13,0a4.9,4.9,0,0,0,.16-1.5,16.44,16.44,0,0,0-.35-2.34c-.18-1-.43-2.12-.62-3a25.32,25.32,0,0,1-.47-2.59c0-.09-.06-.13-.09-.13Zm1.34,4.91a.37.37,0,0,1,.12.25c-.09.21-.75.46-1,.53,0,0-.32.06-.29,0l0,0a4.8,4.8,0,0,1,.53-.68C94.89,68,95.11,67.9,95.33,68.09Zm-.66-7.41a6.23,6.23,0,0,0-.84,1.19,2.1,2.1,0,0,1-.47-.19c-.12-.09-.25.06-.31.19a4.67,4.67,0,0,0-.34.71l-.09.25c0,.13,0,.16.12.06v0c.16-.18.31-.65.41-.59a1.81,1.81,0,0,0,1.93-.19,1.33,1.33,0,0,0,.65-1.34.51.51,0,0,0-.46-.37A.93.93,0,0,0,94.67,60.68ZM52,77.56l-2.24.81s-.07,0-.1.1a3.78,3.78,0,0,0-.15.47c0,.06,0,.06.09,0l.31-.13c.53-.18,1.25-.43,1.9-.68,0,0,.1,0,.1-.1s.12-.31.15-.43S52.09,77.56,52,77.56ZM46.11,75.7c-.13.21-.28.49-.44.71-.22-.15-.5-.31-.68-.43s-.16-.07-.22,0l0,0c-.13.18-.28.43-.41.65s0,.16.1.22.53.31.71.4a.11.11,0,0,0,.16-.06,2.89,2.89,0,0,0,.4-.62,8,8,0,0,0,.75.43c.07,0,.13,0,.16,0a5.93,5.93,0,0,0,.4-.62c.07-.12,0-.16-.06-.22s-.5-.31-.68-.43S46.14,75.63,46.11,75.7Zm3.24.65a.4.4,0,0,0,.09.44,6.07,6.07,0,0,0,.54.31,1.38,1.38,0,0,0-.41.22h0c0,.09-.06.25-.09.34s0,.06.06,0a10.72,10.72,0,0,1,2-.62s.19-.35.22-.41,0-.09-.06-.06a3.81,3.81,0,0,1-.87.12,1.87,1.87,0,0,1-1.06-.53c0-.09.5-.28.59-.28.31,0,.37.35.47.35s.25-.38.25-.47-.28-.41-.47-.41A2.24,2.24,0,0,0,49.35,76.35ZM34.2,68.52a3.38,3.38,0,0,0-.78,1.72.68.68,0,0,0,.16.47,1.16,1.16,0,0,0,.46.12,1.59,1.59,0,0,1,.63.13c.06.06.06.06,0,.12a2.12,2.12,0,0,1-2,.47c-.28-.06-.37.22-.06.34a2,2,0,0,0,2.18-.18c.28-.29.63-1,.38-1.41s-.5-.25-.88-.28c-.15,0-.31,0-.4-.19a.39.39,0,0,1,.09-.4l.25-.25a.15.15,0,0,1,.19,0s.09.06.12.12.13.1.16,0v0l.25-.56c.06-.12.06-.19,0-.28l-.13-.09c-.06,0-.12-.1-.19-.1S34.29,68.43,34.2,68.52Zm11.63-.8-.19.35a.12.12,0,0,0,0,.1,1.17,1.17,0,0,1,.1.4c-.22.21-.45.24-.62.1a.54.54,0,0,1-.15-.48c0-.16,0-.22-.11-.11s-.13.14-.14.22c-.07.52-.29.76-.69.78s-.44-.16-.27-.66c0-.1,0-.22-.15,0-.38.76-.14,1.18.24,1.24a.86.86,0,0,0,.88-.61.63.63,0,0,0,.71.24.64.64,0,0,0,.51-.53,1.62,1.62,0,0,0,0-1C45.88,67.65,45.84,67.69,45.83,67.72Zm-6.92-1c.4,1.4.43,5.86,1.12,7.14a2.09,2.09,0,0,0,1.22,1c1.46.5,5.23,0,6.08-.4s.78-1.59.62-2.25a2.57,2.57,0,0,0-.78-1.34c-.22-.15-.31.81-.28,1.06a4.6,4.6,0,0,1,.75,1.37v0A11.16,11.16,0,0,1,43,74c-1,0-2.3-.12-2.71-1.34-.59-1.87-.47-5-1-6.92C39.22,65.35,38.91,66.22,38.91,66.72Zm3.27.22s-.06,0-.09.09a4.44,4.44,0,0,0-.19.53c0,.06,0,.06.09,0s.25-.13.35-.16c.53-.18,3.71-1.24,4.36-1.52,0,0,.1,0,.1-.1s.12-.37.18-.5,0-.06-.06-.06C46.17,65.56,42.84,66.65,42.18,66.94Zm-5.92-1.66a2.21,2.21,0,0,0-.41,1c.1.25.22.44.28.59.22,2.09,1.06,5.46,1.19,6.52-.5.22-4.83.78-5.89.47-.1,0-.16-.07-.19-.13s-.09-.06-.16,0c-.34.59-.12,1.06.28,1.15l0,0A29.44,29.44,0,0,0,37,74.48a.55.55,0,0,0,.37-.22,3.77,3.77,0,0,0,.28-2c-.19-1.59-.78-3.68-.93-5.18a4.17,4.17,0,0,0,.34-.59c.06-.25-.5-.72-.66-1.25C36.38,65.16,36.29,65.22,36.26,65.28Zm12.58-.13L48.7,66a1.45,1.45,0,0,0,0,.46c.09.6.2,1.16.32,1.72.22,1.29.48,2.48.68,3.66A23.84,23.84,0,0,1,50,74.61c0,.16.09.16.12,0a6,6,0,0,0,.18-1.5,17,17,0,0,0-.3-2.34c-.17-1-.4-2.13-.57-3.07S49.11,66,49,65.15c0-.09-.06-.13-.09-.13l0,0S48.84,65.05,48.84,65.15ZM34.92,64.5l-3.46,1.44s-.07,0-.1.09a4.92,4.92,0,0,1-.15.47c0,.06,0,.06.09,0a1.15,1.15,0,0,0,.31-.16h0c.53-.21,2.47-1,3.12-1.27,0,0,.1,0,.1-.1s.09-.31.12-.43S35,64.5,34.92,64.5ZM14.68,76.22a7.3,7.3,0,0,0-.37.66l0,0c-.06.06-.06.12,0,.15l.62.35c.07,0,.13,0,.16,0s.28-.47.37-.63.07-.12,0-.15-.49-.28-.68-.41S14.71,76.16,14.68,76.22Zm-4.24-7a8,8,0,0,0-.09.84.86.86,0,0,0,.06.34c.16.56.31,1.19.53,1.84-.28.84-1.81,1.28-2.71,1.22-.62-.06-.53-.53-.65-.53s-.16.34-.16.43a1.32,1.32,0,0,0,.22.94c.34.41,1.74.13,2.4-.19s.72-.37,1.09-1.34A4.34,4.34,0,0,0,12.31,75c1.25.9,2.09-.44,2.44-.84.09-.13.12-.16.31,0,.59.65,2.15,1.09,3.93,1.06a14.28,14.28,0,0,0,5.89-1.44l0-.06a2.23,2.23,0,0,0,3.52,0,2.55,2.55,0,0,0,0-2.37,4,4,0,0,0-.9-1.15c-.1-.1-.1-.06-.13,0-.09.34-.12.53-.18.87,0,.09,0,.09.09.19a4,4,0,0,1,1,1.65,2.21,2.21,0,0,1-2.62.28c.34-.37.69-1,.59-1.21-.15-.6-1.12-.88-2-.82a1.69,1.69,0,0,0-1.56,1.35c-.06.18.06.21.15.15a1,1,0,0,1,1.34.44,14.14,14.14,0,0,1-6.26,1,5.83,5.83,0,0,1-2.93-1c-.19-.13-.34-.06-.47.12a1.45,1.45,0,0,1-2.71-.06,24,24,0,0,1-1.34-4.05C10.51,69.08,10.48,69.05,10.44,69.24Zm11.38-.47c0,.06-.06.16-.09.22s0,.19.09.09a.86.86,0,0,1,.25-.28,1.21,1.21,0,0,1,.78-.19,2.82,2.82,0,0,1,.72.22,11.3,11.3,0,0,1-1.25.69c-.09.06-.18.12-.15.22s.12.09.21.06c.41-.16.57-.13.91-.28l0,0a2.36,2.36,0,0,0,.68-.47.21.21,0,0,0,.13,0,1.2,1.2,0,0,0,.25-.56c0-.06-.31-.1-.41-.13-.28-.06-.59-.21-.9-.25A1.2,1.2,0,0,0,21.82,68.77Zm4.74-1.12c-.12.19-.28.47-.37.65l0,0c-.06.07-.06.13,0,.16l.62.34c.07,0,.13,0,.16,0a6.75,6.75,0,0,0,.37-.62c.07-.06.07-.13,0-.16s-.5-.28-.68-.4S26.59,67.59,26.56,67.65ZM15,66.78a1.07,1.07,0,0,1,.23.65c0,.1,0,.24,0,.25a1.18,1.18,0,0,1-.23-.09l-.57-.23c-.13,0,0-.23,0-.23a1.39,1.39,0,0,1,.22-.29l.13-.08C14.81,66.73,14.93,66.7,15,66.78Zm-.07-.61a1.66,1.66,0,0,0-1,1.18c-.08.26,0,.42.12.51a3.62,3.62,0,0,0,.88.33,7.63,7.63,0,0,1-2,1.76c-.3.17-.24.36.12.19a4.54,4.54,0,0,0,2.35-1.85l.27.07c.17,0,.13.06.22-.19s.07-.21.08-.27l-.41-.15,0-.14a2.38,2.38,0,0,0-.11-1C15.32,66.27,15.14,66.13,14.92,66.17Zm-4.46-.81a1.11,1.11,0,0,1,.23.66,2.11,2.11,0,0,1,0,.24,1.18,1.18,0,0,1-.23-.09L9.87,66c-.13,0,0-.23,0-.23a1.43,1.43,0,0,1,.22-.3l.13-.08C10.28,65.32,10.4,65.29,10.46,65.36Zm-.08-.6a1.67,1.67,0,0,0-1,1.17c-.08.27,0,.42.12.51a3,3,0,0,0,.88.33,7.7,7.7,0,0,1-2,1.77c-.3.17-.24.35.12.19a4.64,4.64,0,0,0,2.35-1.85,1.54,1.54,0,0,1,.27.07c.17,0,.13.06.22-.2a2.19,2.19,0,0,0,.08-.27L11,66.34l0-.14a2.38,2.38,0,0,0-.11-1C10.79,64.85,10.61,64.72,10.38,64.76ZM24.1,66.28c-.06,0-.06,0-.09.09a2.78,2.78,0,0,0-.13.47c0,.06,0,.06.06,0s.22-.13.31-.16h0c.53-.22,2.93-1.12,3.58-1.37,0,0,.06,0,.1-.09s.09-.31.12-.44,0-.06-.06-.06C27.28,65.06,24.75,66,24.1,66.28ZM218.4,92.46a.66.66,0,0,1-1.14,0c0-.07,0-.13.06-.25C217.72,91.64,217.94,91.67,218.4,92.46Zm-1.48-.17c-.1.69,0,1.43.84,1.5a1,1,0,0,0,.93-.75c.38.59-.62,2.06-1.28,2.62C216,97,214.52,97,212.71,96.72c-.22,0-.38.18-.07.28,1.28.47,3.4.65,4.34.12h0a4.71,4.71,0,0,0,2-4.89c-.21-.75-.62-1.5-1.06-1.5S217,91.54,216.92,92.29Zm1.9-5.92c-.75.31-3.28,1.24-3.93,1.52-.06,0-.06,0-.09.1a4.21,4.21,0,0,0-.13.47c0,.06,0,.06.06,0s.22-.13.32-.16h0c.53-.22,2.93-1.12,3.58-1.37,0,0,.06,0,.1-.09l.12-.44C218.88,86.37,218.88,86.37,218.82,86.37ZM208.8,96c-.12.22-.28.5-.43.72-.22-.16-.5-.31-.69-.44s-.15-.06-.22,0l0,0c-.12.19-.28.44-.4.66s0,.15.09.21a6.59,6.59,0,0,0,.72.41c.06,0,.09,0,.15-.06a3.27,3.27,0,0,0,.41-.63c.28.19.53.31.75.44.06,0,.09,0,.15,0s.31-.47.41-.62,0-.16-.06-.22-.5-.31-.69-.44S208.83,96,208.8,96Zm3.28-.94s-.06,0-.1.1a2.62,2.62,0,0,0-.15.47c0,.06,0,.06.09,0s.22-.1.31-.13c.53-.18,1.25-.43,1.91-.68,0,0,.09,0,.09-.1s.12-.31.15-.43,0-.07-.06-.07C213.57,94.58,212.73,94.86,212.08,95.1ZM211.69,93a.37.37,0,0,0,.1.43,3.52,3.52,0,0,0,.53.32A2,2,0,0,0,212,94c0,.09-.06.24-.09.34s0,.06.06,0a11.29,11.29,0,0,1,1.94-.62,3.66,3.66,0,0,0,.22-.41c0-.06,0-.09-.07-.06a3.81,3.81,0,0,1-.87.12,1.87,1.87,0,0,1-1.06-.53c0-.09.5-.28.59-.28.31,0,.38.35.44.35s.28-.38.28-.47a.62.62,0,0,0-.47-.41A2.2,2.2,0,0,0,211.69,93ZM195.62,89.4c-.13.31-.28.75,0,1s.68,0,1,.22-.09.21-.18.28-.28.18-.44.28a1.34,1.34,0,0,1-.37.09,2.45,2.45,0,0,1-.94,0c-.12,0-.43,0-.34.22s.5.19.65.19c.35,0,.66.15,1,0a1.79,1.79,0,0,0,.53-.16c.37-.19.44-.47.56-.81l0,0a1,1,0,0,0,.09-.69c-.06-.43-.56-.34-.87-.37a.55.55,0,0,1-.34-.16c-.06-.09,0-.12,0-.18a1.1,1.1,0,0,1,.31-.44c.28-.19.28.5.5,0,.09-.22.25-.53.12-.75C196.52,87.5,195.74,89.12,195.62,89.4Zm12.82-1.47-.18.35s0,.06,0,.11a1.08,1.08,0,0,1,.09.39c-.22.21-.45.24-.62.1a.57.57,0,0,1-.14-.48c0-.16,0-.22-.11-.11s-.14.14-.15.22c-.06.52-.29.76-.69.79-.25,0-.44-.16-.26-.66,0-.11,0-.23-.15,0-.38.75-.15,1.17.24,1.23a.84.84,0,0,0,.87-.61.64.64,0,0,0,.72.24c.34-.09.41-.25.51-.53a1.69,1.69,0,0,0,0-1C208.5,87.86,208.46,87.9,208.44,87.93Zm-7-2.21-.22.84a.34.34,0,0,0,0,.16,12.06,12.06,0,0,1,.25,1.37l.44,3.06c.24,1.59.21,3.24,1.87,3.58a12.86,12.86,0,0,0,5.73-.4,2.71,2.71,0,0,0,.72-.32,2.36,2.36,0,0,0,.31-1,2.51,2.51,0,0,0-.9-2.25c-.13-.12-.13-.12-.16,0l-.19.87a.23.23,0,0,0,0,.16h0a2.3,2.3,0,0,1,.85,1.34,11.12,11.12,0,0,1-6.64.44c-.82-.35-.94-1-1.16-2.28-.15-1.09-.31-2.37-.47-3.49a18.18,18.18,0,0,0-.34-2.12C201.54,85.57,201.48,85.6,201.45,85.72Zm7.79-.37c-.75.31-4.12,1.4-4.74,1.68,0,0-.06,0-.09.09s-.13.38-.19.53,0,.07.09,0a2.29,2.29,0,0,1,.35-.16c.53-.19,3.71-1.25,4.36-1.5v0c.06,0,.1,0,.13-.09s.12-.34.15-.5S209.27,85.35,209.24,85.35Zm-10.69-.25a3.57,3.57,0,0,0-.44.84,2.1,2.1,0,0,0,.44.75l0,0c.4,2.06.68,3.43,1.31,6.55a31.53,31.53,0,0,1-6.42.59c-.22,0-.22-.22-.29-.22s-.18.41-.24.72c-.1.56.24.53.62.53a39.65,39.65,0,0,0,6.11-.56c.37-.07.44-.22.5-.85a5.67,5.67,0,0,0-.09-1.84c-.35-1.65-.69-3.27-1-4.89.15-.22.46-.59.4-.65a3.73,3.73,0,0,1-.78-1C198.61,85,198.58,85,198.55,85.1Zm-4.93.87s-.06,0-.09.09-.1.35-.16.47,0,.06.1,0a1.75,1.75,0,0,0,.31-.15c.53-.22,2.93-1.12,3.58-1.37h0s.1,0,.1-.1.09-.31.12-.43,0-.07-.06-.07C196.8,84.75,194.28,85.69,193.62,86Zm17.58-1.06a1.61,1.61,0,0,0,.07.53,10,10,0,0,1,.15,1l0,0c.13.56.91,5.21,1,5.17s.16-.56.16-.71a5.53,5.53,0,0,0,0-1.22c-.16-1-.41-2-.53-3-.07-.44-.19-.87-.25-1.34,0-.19-.1-1.34-.29-1.37S211.24,84.75,211.2,84.91Zm-41,12.47s-.06,0-.09.1-.1.34-.16.46,0,.07.09,0a2.39,2.39,0,0,0,.32-.16c.53-.22,2.93-1.12,3.58-1.37h0s.1,0,.1-.1.09-.31.12-.43,0-.06-.06-.06C173.33,96.17,170.8,97.1,170.15,97.38Zm-3.83-1.62c-.13.22-.28.5-.44.72-.22-.16-.5-.31-.69-.44s-.15-.06-.22,0l0,0c-.12.19-.28.44-.4.66s0,.15.09.22.53.31.72.4a.11.11,0,0,0,.15-.06,3.14,3.14,0,0,0,.41-.62c.28.18.53.31.75.43.06,0,.12,0,.15,0a6.61,6.61,0,0,0,.41-.62c.06-.13,0-.16-.06-.22s-.5-.31-.69-.44S166.35,95.7,166.32,95.76Zm-8.11-5.11a7.44,7.44,0,0,0-.38.66l0,0c-.06.06-.06.13,0,.16s.43.25.62.34a.11.11,0,0,0,.16,0,6.88,6.88,0,0,0,.37-.63c.06-.06.06-.12,0-.15s-.5-.28-.69-.41S158.24,90.59,158.21,90.65Zm31-.5a7.7,7.7,0,0,1,1.24,2.4c.16.41-1.37.06-1.74-.06a2.12,2.12,0,0,0,.06-.56c0-.16-.12-.1-.15,0-.25.72-.44,1.25-.63,1.28a3.38,3.38,0,0,1-1-.38,3.79,3.79,0,0,0,.29-.71c0-.19,0-.32-.13-.19a2.66,2.66,0,0,1-1,1.09,3.94,3.94,0,0,1-1.65.37,4.37,4.37,0,0,0,.44-1.15c.06-.25-.07-.41-.16-.19-.84,1.44-2.71,1.62-4.15,1.72s-2.74-.19-3.33-1.12c-.1-.13-.22-.16-.38,0a2.69,2.69,0,0,1-3.71.81c.38-.28.81-.94.63-1.31a1.92,1.92,0,0,0-1.72-.75,1.76,1.76,0,0,0-1.9,1.31c0,.22.06.25.19.15a1,1,0,0,1,1.28.44c-2,.84-3.81.75-4.43-.5-.31-.56-.37-1.65-.75-2.68-.12-.28-.37-.16-.43.06-.22.56-.47,1.19-1.13,1.22-.37,0-.4-.13-.53-.38a4,4,0,0,1-.22-.4c-.06-.13-.12-.09-.15,0-.06.34-.19.87-.19.9a4,4,0,0,1,.62,1.53,5.45,5.45,0,0,1-2.68,1.84,15.8,15.8,0,0,1-6.57.72,14.53,14.53,0,0,1-5.59-2.15c-.06-.07-.18-.13-.24-.07s0,.16.09.25a9.87,9.87,0,0,0,6.76,3,14.35,14.35,0,0,0,5.77-.94,5.43,5.43,0,0,0,2.31-1.62,3.43,3.43,0,0,0,.47-1.65c.84.06,1.12-.78,1.34-1.41,0-.06.09-.06.12,0,.5,1.55.34,3.39,2.25,3.77a5.86,5.86,0,0,0,3.83-.94,2.85,2.85,0,0,0,4.55-.25c.1-.09.16-.09.22,0a3.26,3.26,0,0,0,2.5,1.16,10.46,10.46,0,0,0,4-.6l-.07-.09c1.66.16,2.34-.06,2.9-.56a2.67,2.67,0,0,0,1.34.59,2.4,2.4,0,0,0,.72-1c.38.27,1.44.74,1.81.52a.84.84,0,0,0,.34-.62c.44-1.78-.53-3-1.28-4A6.24,6.24,0,0,0,189.17,90.15ZM176.42,88.5c-.13.22-.28.5-.44.72-.22-.16-.5-.32-.69-.44s-.15-.06-.21,0l0,0c-.12.19-.28.44-.4.65s0,.16.09.22.53.31.72.41.09,0,.16-.07a3.34,3.34,0,0,0,.4-.62c.28.19.53.31.75.44.06,0,.09,0,.16,0a7.33,7.33,0,0,0,.4-.63c.06-.12,0-.15-.06-.22l-.69-.43C176.48,88.44,176.45,88.44,176.42,88.5Zm8,.09c0,.06-.06.16-.09.22s0,.19.09.09a.85.85,0,0,1,.25-.28,1.15,1.15,0,0,1,.78-.18,2.44,2.44,0,0,1,.71.21s-1.09.6-1.24.69-.16.12-.16.22.13.09.22.06c.41-.16.56-.12.9-.28l0,0a2.49,2.49,0,0,0,.69-.47.18.18,0,0,0,.12,0,1.07,1.07,0,0,0,.25-.56c0-.06-.31-.1-.4-.13-.28-.06-.59-.21-.91-.25A1.19,1.19,0,0,0,184.46,88.59Zm3.9-2.09a7.44,7.44,0,0,0-.38.66l0,0c-.06.06-.06.12,0,.15s.44.25.63.35.12,0,.15,0a7,7,0,0,0,.38-.63c.06-.06.06-.12,0-.15a6.25,6.25,0,0,0-.69-.41C188.42,86.44,188.39,86.44,188.36,86.5ZM173.77,87s-.07,0-.1.1-.09.34-.15.46,0,.07.09,0a1.47,1.47,0,0,0,.31-.15c.53-.22,2.93-1.12,3.59-1.4l0,0s.09,0,.09-.1.1-.31.13-.43,0-.06-.07-.06C177,85.82,174.42,86.75,173.77,87Zm-15.14-1a1,1,0,0,1,.23.65,1.14,1.14,0,0,1,0,.25.93.93,0,0,1-.22-.09l-.58-.23c-.13,0,0-.23,0-.23a1.39,1.39,0,0,1,.22-.29l.12-.08C158.46,85.94,158.58,85.91,158.63,86Zm-.07-.61c-.38.06-.81.58-1,1.18-.08.26,0,.42.11.51a3.62,3.62,0,0,0,.88.33,7.63,7.63,0,0,1-2,1.76c-.29.17-.24.36.13.19A4.55,4.55,0,0,0,159,87.5l.28.07c.16.05.12.07.21-.19s.07-.21.08-.27l-.41-.14,0-.15a2.22,2.22,0,0,0-.11-1C159,85.48,158.78,85.34,158.56,85.38Zm27.33-.25s-.06,0-.09.1a3.28,3.28,0,0,1-.16.47c0,.06,0,.06.1,0a1.53,1.53,0,0,0,.31-.16c.53-.22,2.93-1.12,3.58-1.37h0s.09,0,.09-.09.09-.32.12-.44,0-.06-.06-.06C189.07,83.92,186.55,84.85,185.89,85.13Zm-79.28,15s-.06,0-.09.09a2.61,2.61,0,0,1-.16.47c0,.06,0,.06.1,0a1.47,1.47,0,0,0,.31-.15h0c.53-.22,2.46-1,3.12-1.28,0,0,.09,0,.09-.09s.1-.32.13-.44,0-.06-.07-.06Zm14.13-4.18c.12.13.31.41.28.53s-.13.19-.28.16a10.13,10.13,0,0,1-1.28-.41,2.8,2.8,0,0,0,.15-1.37A7.94,7.94,0,0,1,120.74,95.92Zm-1.44-.34a1.7,1.7,0,0,1-.65.41c-1,0-1-.25-1-.41.09-.44.4-1.06.78-1.06S119.15,95.05,119.3,95.58ZM108.58,92a3.43,3.43,0,0,0-.1.75l.07.07c.18.59.5,1.74.71,2.4-.34.74-1.8,1.15-2.68,1.06-.59,0-.56-.38-.68-.41s-.13.25-.16.34a1,1,0,0,0,.13.88c.34.46,1.68.15,2.3-.1s.75-.25,1.22-1.4a4.19,4.19,0,0,0,1.28,2c1.4,1,5.55.43,7.7-.63a13.1,13.1,0,0,1,2,.5.73.73,0,0,0,.44,0c.22-.09.34-.47.4-.78a2.08,2.08,0,0,0-.49-1.9,10.77,10.77,0,0,0-2.37-1.93,1.34,1.34,0,0,0-.6-.22c-.12,0-.21.06-.24.25a5.32,5.32,0,0,0,0,.81c0,.12,0,.15.18.25a2.83,2.83,0,0,0-.4,2.46c-1.66.53-5.15,1.09-6.52.09-1.12-.74-1.65-3.21-2.09-4.52C108.67,91.87,108.61,91.81,108.58,92Zm-6.86-1.12a7.44,7.44,0,0,0-.38.66l0,0c-.07.06-.07.12,0,.15s.43.25.62.35.13,0,.16,0a5.63,5.63,0,0,0,.37-.62c.06-.06.06-.12,0-.15a6.25,6.25,0,0,0-.69-.41C101.78,90.78,101.75,90.78,101.72,90.84Zm15.15-1.15c0,.06-.06.15-.09.22s0,.18.09.09a.76.76,0,0,1,.25-.28,1.16,1.16,0,0,1,.78-.19,2.45,2.45,0,0,1,.72.22c0,.06-1.09.59-1.25.69s-.19.12-.16.21.13.1.22.07c.41-.16.56-.13.91-.28l0,0a2.49,2.49,0,0,0,.69-.47.22.22,0,0,0,.13,0,1.18,1.18,0,0,0,.24-.56c0-.07-.31-.1-.4-.13a7.88,7.88,0,0,0-.9-.25A1.2,1.2,0,0,0,116.87,89.69Zm-22.79-1.4-.22.84a.33.33,0,0,0,0,.15c.13.47.19,1.16.28,1.62L94.61,94c.25,1.59.22,3.24,1.87,3.58a12.68,12.68,0,0,0,3.62.16,14.76,14.76,0,0,0,3.68-.81h-.07a1.88,1.88,0,0,0,.69-.37,2,2,0,0,0,.25-1.06,2.54,2.54,0,0,0-1-2.19c-.12-.09-.12-.12-.16.07l-.12.87a.17.17,0,0,0,.06.16,2.24,2.24,0,0,1,.91,1.27,14.06,14.06,0,0,1-5.9,1.09,7.67,7.67,0,0,1-2.21-.37,1.22,1.22,0,0,1-.56-.41,4.27,4.27,0,0,1-.59-1.87c-.16-1.09-.31-2.37-.47-3.49-.12-.81-.22-1.81-.37-2.34C94.17,88.13,94.11,88.16,94.08,88.29Zm4.71,1.55s-.06,0-.1.1a3.2,3.2,0,0,0-.18.53c0,.06,0,.06.09,0s.25-.13.34-.16c.53-.18,3.71-1.24,4.37-1.52,0,0,.09,0,.09-.1s.13-.37.19-.5,0-.06-.06-.06C102.78,88.47,99.44,89.56,98.79,89.84Zm23.35-1.74L122,89a1.23,1.23,0,0,0,0,.47c.1.56.25,1.15.38,1.71.25,1.25.5,2.47.71,3.65a22.17,22.17,0,0,1,.38,2.74c0,.16.09.16.12,0a4.52,4.52,0,0,0,.16-1.49,17.77,17.77,0,0,0-.34-2.34c-.19-1-.44-2.12-.63-3.06s-.37-1.74-.46-2.58a.12.12,0,0,0-.1-.13S122.14,88,122.14,88.1Zm1.06-2.55a.37.37,0,0,1,.12.24c-.09.22-.74.47-1,.54,0,0-.32.06-.28,0l0,0a4.29,4.29,0,0,1,.53-.68C122.76,85.42,123,85.36,123.2,85.55Zm-.66-.41a6.23,6.23,0,0,0-.84,1.19,1.66,1.66,0,0,1-.47-.19c-.15-.1-.24.06-.31.19a4.67,4.67,0,0,0-.34.71l-.09.25c0,.13,0,.16.12.06v0c.16-.18.31-.65.41-.59a1.81,1.81,0,0,0,1.93-.19,1.33,1.33,0,0,0,.65-1.34.51.51,0,0,0-.46-.37A.93.93,0,0,0,122.54,85.14ZM82,99.44s-.06,0-.1.09-.09.34-.15.47,0,.06.09,0a1,1,0,0,0,.31-.16c.5-.21,2.93-1.12,3.59-1.37h0s.09,0,.09-.09S86,98.1,86,98s0-.06-.06-.06C85.2,98.22,82.67,99.16,82,99.44Zm-9.39-8.79a2.08,2.08,0,0,0-.18.53,3.08,3.08,0,0,0,.28.4A3.3,3.3,0,0,1,73.32,94c0,.07,0,.16,0,.16v0c.22,0,.34-.78.34-1.18a3.72,3.72,0,0,0-.9-2.37C72.73,90.58,72.66,90.58,72.63,90.65Zm11.22-1.57-.18.35s0,.06,0,.1a1.22,1.22,0,0,1,.1.4c-.22.21-.45.24-.62.1a.57.57,0,0,1-.14-.48c0-.16,0-.22-.12-.11s-.13.14-.14.22c-.07.52-.29.76-.69.79s-.44-.17-.27-.67c0-.1,0-.22-.14,0-.38.76-.15,1.18.23,1.24a.85.85,0,0,0,.88-.61.63.63,0,0,0,.71.24c.34-.09.42-.25.52-.53a1.77,1.77,0,0,0,0-1C83.9,89,83.87,89.05,83.85,89.08ZM71.32,87.91c-.74.31-2.43,1-3.08,1.24,0,0-.06,0-.1.1s-.09.34-.15.46,0,.07.09,0a1.27,1.27,0,0,0,.31-.15l0,0c.49-.22,2.08-.87,2.74-1.12,0,0,.09,0,.09-.1s.1-.31.13-.43S71.39,87.91,71.32,87.91Zm2.81,1.43s-.06,0-.09.09a4.92,4.92,0,0,1-.15.47c0,.06,0,.06.09,0a1.53,1.53,0,0,0,.31-.16c.5-.22,2.93-1.12,3.59-1.4l0,0s.09,0,.09-.09.09-.31.12-.44,0-.06-.06-.06C77.31,88.12,74.79,89.06,74.13,89.34Zm-2.56,5.24c-.62.87-3.52,1.62-4.64,1.53a13.8,13.8,0,0,1,2.62-2A2.11,2.11,0,0,1,71.57,94.58Zm-4.92-7.42a4,4,0,0,0-.38.71c0,.07,0,.13,0,.16a3.8,3.8,0,0,0,.38.62c.19,2.4.72,3.65.81,6.36a12.46,12.46,0,0,1-1.25,1.1A11.05,11.05,0,0,1,63,95.73c-.5-.12-.28.13-.15.22v0a5.22,5.22,0,0,0,2.3,1.12c1.94.35,5.12-.25,6.24-1.43A2.44,2.44,0,0,0,72.13,94c-.09-1-1.4-1.13-2-1-.91.22-1.65,1.15-2.46,1.84a3.76,3.76,0,0,0,.18-1.19c-.09-1.9-.5-3-.68-4.67.09-.16.37-.63.43-.75s-.56-.59-.74-1.06C66.77,87.06,66.71,87.06,66.65,87.16ZM89.09,87l-.12.88a1.17,1.17,0,0,0,0,.46c.09.6.22,1.16.34,1.72.25,1.28.5,2.46.75,3.65a24,24,0,0,1,.38,2.74c0,.16.09.16.12,0A5.54,5.54,0,0,0,90.72,95a16.44,16.44,0,0,0-.35-2.34c-.18-1-.43-2.12-.62-3.06A24.37,24.37,0,0,1,89.28,87c0-.09-.06-.12-.09-.12l0,0S89.09,86.94,89.09,87Zm-4,7.2v.06c-.59,1-2.52,1.62-4,1.62h-.19l.07-.06c.18-.15.37-.34.56-.53a7.46,7.46,0,0,1,1.46-1.15C84.09,93.61,84.83,93.88,85,94.23Zm1.5-7.42a3.48,3.48,0,0,0-.47.75.21.21,0,0,0,0,.19c.09.18.25.46.34.62l0,.09c.34,2.53,1.09,6,1.12,6.14a6.65,6.65,0,0,1-2.9,1.16l-.1,0,.1-.09a3.19,3.19,0,0,0,.84-1.87c0-.6-.69-.91-1.31-.91a1.83,1.83,0,0,0-1.06.31,9,9,0,0,0-1.25,1.19,13.88,13.88,0,0,1-1.65,1.49,5.61,5.61,0,0,1-1.75-.81l0,0v0a1.65,1.65,0,0,0,.07-.81c0-.09-.07-.09-.07-.09s-.06,0-.12.06a18.65,18.65,0,0,1-3.27,1.12c-.07,0-.1,0-.13.1a3.21,3.21,0,0,0-.12.81v0h.06l.37,0h.07l0,.06A4.12,4.12,0,0,1,71.54,99a5.89,5.89,0,0,1-2.34-.59.43.43,0,0,0-.18-.06c-.07,0-.1,0-.1,0s0,.09.22.25a7.21,7.21,0,0,0,3.21,1.09c.41,0,2.85-.23,3.28-3.43.53-.16,1.81-.56,2.43-.84l0,0v0a3.4,3.4,0,0,0,1.06,1.24h0l-.06.16a6.69,6.69,0,0,0-.31,1.31.35.35,0,0,0,.06.25s.06,0,.12-.19.1-.34.16-.53a7.93,7.93,0,0,1,.31-.9v0h0a7.93,7.93,0,0,0,1.9.21c2.25,0,4.9-.59,5.83-1.31a2.12,2.12,0,0,0,.66-1.87,21.69,21.69,0,0,0-.5-2.89c-.16-.82-.31-1.56-.41-2.25l.1-.09a1.75,1.75,0,0,0,.4-.6c0-.06-.06-.15-.18-.28a1.83,1.83,0,0,1-.6-.84c0-.06,0-.09-.06-.09S86.57,86.75,86.54,86.81Zm3.77-2a.38.38,0,0,1,.13.25c-.1.22-.75.46-1,.53,0,0-.31.06-.28,0v0a2.47,2.47,0,0,1,.5-.69A.45.45,0,0,1,90.31,84.79Zm-.65-.41a5.86,5.86,0,0,0-.85,1.19,1.5,1.5,0,0,1-.46-.19c-.16-.09-.25.06-.32.19a5.17,5.17,0,0,0-.34.71l-.09.25c0,.13,0,.16.12.07v0c.16-.19.28-.66.41-.6a1.81,1.81,0,0,0,1.93-.18,1.36,1.36,0,0,0,.66-1.34.51.51,0,0,0-.47-.38A.93.93,0,0,0,89.66,84.38ZM33.44,99.91s-.06,0-.1.09a4.92,4.92,0,0,1-.15.47c0,.06,0,.06.09,0a1.3,1.3,0,0,0,.31-.16l0,0c.53-.22,2.47-1,3.12-1.28,0,0,.1,0,.1-.09s.09-.31.12-.44,0-.06-.06-.06C36.15,98.81,34.09,99.66,33.44,99.91ZM29.76,98.5c-.13.22-.28.5-.44.72-.22-.16-.5-.31-.68-.44s-.16-.06-.22,0l0,0c-.13.19-.28.44-.41.66s0,.15.09.22.53.31.72.4A.12.12,0,0,0,29,100a3,3,0,0,0,.4-.63,8.35,8.35,0,0,0,.75.44c.06,0,.13,0,.16,0s.31-.47.4-.62,0-.16-.06-.22-.5-.31-.69-.44S29.79,98.44,29.76,98.5Zm10.63-7.67c-.13.22-.28.5-.44.72-.22-.16-.5-.31-.68-.44s-.16-.06-.22,0l0,0c-.13.19-.28.44-.41.66s0,.15.1.22.53.31.71.4.1,0,.16-.06a3.18,3.18,0,0,0,.4-.62c.28.18.53.31.75.43a.12.12,0,0,0,.16,0c.12-.16.31-.47.4-.62s0-.16-.06-.22-.5-.31-.68-.44S40.42,90.77,40.39,90.83Zm-13.21-.47c-.75.31-2.43,1-3.08,1.24,0,0-.07,0-.1.1a4,4,0,0,1-.15.46c0,.07,0,.07.09,0a1.47,1.47,0,0,0,.31-.15l0,0c.5-.22,2.09-.87,2.75-1.12,0,0,.09,0,.09-.1s.09-.31.12-.43S27.24,90.36,27.18,90.36ZM47,90.58c0,.07-.06.16-.09.22s0,.19.09.1a.8.8,0,0,1,.25-.29,1.21,1.21,0,0,1,.78-.18,2.1,2.1,0,0,1,.71.22c0,.06-1.09.59-1.24.68a.27.27,0,0,0-.16.22c0,.09.13.09.22.06l0,0c.4-.16.56-.12.9-.28a2.49,2.49,0,0,0,.69-.47.18.18,0,0,0,.12,0,1.07,1.07,0,0,0,.25-.56c0-.06-.31-.09-.4-.13a7.53,7.53,0,0,0-.91-.24A1.17,1.17,0,0,0,47,90.58Zm-11.51-.71c-.12.21-.28.49-.43.71-.22-.15-.5-.31-.69-.43s-.15-.07-.22,0l0,0c-.12.18-.28.43-.4.65s0,.16.09.22.53.31.72.4.09,0,.15-.06a2.86,2.86,0,0,0,.41-.62c.28.19.53.31.75.44.06,0,.09,0,.15,0a4.74,4.74,0,0,0,.41-.62c.06-.12,0-.16-.06-.22l-.69-.43C35.56,89.8,35.53,89.8,35.49,89.87ZM53.2,88.52a1,1,0,0,1,.24.65,1,1,0,0,1,0,.25l-.22-.09a5.41,5.41,0,0,0-.58-.23c-.12,0,0-.23,0-.23a1.75,1.75,0,0,1,.22-.3l.12-.08C53,88.47,53.15,88.44,53.2,88.52Zm-.07-.61a1.67,1.67,0,0,0-1,1.17c-.08.27,0,.43.12.52a3.15,3.15,0,0,0,.88.32,7.7,7.7,0,0,1-2,1.77c-.3.17-.24.36.12.19A4.64,4.64,0,0,0,53.58,90l.27.07c.16.05.13.06.22-.2a1.78,1.78,0,0,0,.08-.27l-.41-.14,0-.14a2.38,2.38,0,0,0-.11-1C53.54,88,53.36,87.87,53.13,87.91Zm6.09.27a7,7,0,0,0,.28,2.06c.06.47.16.9.25,1.37.19.88.34,1.75.5,2.62.09.62.13,1.25.25,1.87.06.25.22-.31.22-.37a4.38,4.38,0,0,0,.06-1.25h0a26.51,26.51,0,0,0-.75-4.18,7.73,7.73,0,0,1-.21-1.15c0-.37-.19-.69-.22-1.06,0-.13,0-.72-.16-.75S59.25,88,59.22,88.18Zm-21.39.66c-.06,0-.06,0-.09.09a4.48,4.48,0,0,0-.12.47c0,.06,0,.06.06,0s.22-.13.31-.16h0l3.59-1.37s.06,0,.09-.09.09-.31.12-.44,0-.06-.06-.06C41,87.62,38.49,88.56,37.83,88.84ZM26.24,95.7c.43,0,.87.37,1.15,1l0,0h-.28a2.16,2.16,0,0,1-1.68-.6V96.1a.91.91,0,0,1,.74-.47Zm27.46-1a2.62,2.62,0,0,0,.28.53l.06.06h-.12a2.54,2.54,0,0,1-1.31-.5.87.87,0,0,1,.65-.68h.07A1.2,1.2,0,0,1,53.7,94.73ZM35.59,93.67h.09a1.35,1.35,0,0,1,.63,1,2,2,0,0,1-1.16.87,1.63,1.63,0,0,1-.75-.66c.28-.62.85-1.21,1.19-1.21Zm20.7-6.92a2.76,2.76,0,0,0-.34.75.15.15,0,0,0,0,.18,1.22,1.22,0,0,0,.18.41c.07.12.13.25.19.37a19.31,19.31,0,0,0,.62,3.34,18.17,18.17,0,0,1,.57,2.77,1.89,1.89,0,0,1-1.44.5,2.69,2.69,0,0,1-.9-.15,3.13,3.13,0,0,1-1.25-1.09.78.78,0,0,0-.16-.22.35.35,0,0,0-.28-.19c-.06,0-.09,0-.15.06a4.66,4.66,0,0,0-.94,1.12,4,4,0,0,1-.78.94.86.86,0,0,1-.53.19,2,2,0,0,1-.9-.28h0v0a3.37,3.37,0,0,0,.15-.78.14.14,0,0,0-.09-.13,0,0,0,0,0,0,0,6.18,6.18,0,0,1-.78,1.65h-.09a2,2,0,0,1-.94-.34l0,0v0a3.69,3.69,0,0,0,.34-.94c0-.09,0-.18-.06-.21s-.06,0-.09.09l0,0a3.4,3.4,0,0,1-.72,1,2.87,2.87,0,0,1-1.72.43h-.21l0-.06a2.8,2.8,0,0,0,.37-1.34s0-.06,0-.06-.06,0-.06,0c-.25.87-1.16,1.15-2,1.34a4.28,4.28,0,0,1-1.09.13,3.55,3.55,0,0,1-2.8-1.06c-.1-.13-.16-.19-.25-.19s-.13.06-.19.12a3,3,0,0,1-2.34,1,3.51,3.51,0,0,1-1.4-.25l-.06,0,0,0a2.48,2.48,0,0,0,.06-3.06.55.55,0,0,0-.41-.24.45.45,0,0,0-.25.09,3.24,3.24,0,0,0-1.4,3.18v0h0a4.64,4.64,0,0,1-1.71.28,4.36,4.36,0,0,1-2-.41,3.87,3.87,0,0,1-1.56-2.61,2.33,2.33,0,0,0-.06-.25.9.9,0,0,0-.06-.22,3.33,3.33,0,0,0-.16,1.06,1.62,1.62,0,0,1-.87,1.12,1.35,1.35,0,0,1-.63.16h-.49A1.08,1.08,0,0,0,26,95a1.5,1.5,0,0,0-.88,1.18,2.47,2.47,0,0,0,.25,1.06c-.53.88-2.68,2-3.33,2.31-.28.13-.28.19-.28.19s0,0,.09,0a1.1,1.1,0,0,0,.28,0s2.84-.38,3.65-2.37v0l0,0a3.82,3.82,0,0,0,1.53.25l.37,0a.14.14,0,0,0,.16-.1,2,2,0,0,0-.25-1.87l0,0,0,0a1.92,1.92,0,0,0,1.06-1.15l0-.1.06.25a3.71,3.71,0,0,0,.75,1.56,3.56,3.56,0,0,0,2.62.94,7.43,7.43,0,0,0,2.93-.63,4.45,4.45,0,0,0,2.31.63,3,3,0,0,0,2.4-1c.09-.12.15-.16.22-.16s.15.07.21.19c.5.94,1.84,1.09,2.62,1.09a5.7,5.7,0,0,0,2.25-.4,1.93,1.93,0,0,0,1.09.28,2.65,2.65,0,0,0,1.62-.5l0,0,0,0a2.21,2.21,0,0,0,1.25.56h0c.06,0,.09,0,.12,0A6.6,6.6,0,0,0,49.9,96v0l0,0a3.07,3.07,0,0,0,1.31.56c.34-.06.78-.62,1.06-1l0,0,0,.06c.28.56,1.34.78,2,.78h.25c.13,0,.16-.28.19-.5v-.06l.06,0a2.21,2.21,0,0,0,1.06.22,2.41,2.41,0,0,0,1.66-.5,3,3,0,0,0,.28-1.87,25.89,25.89,0,0,0-.69-3.49c-.15-.56-.28-1.12-.37-1.62l.09-.16c.09-.22.25-.47.28-.59s-.06-.19-.19-.31a1.66,1.66,0,0,1-.46-.72c0-.12-.07-.15-.1-.15S56.32,86.66,56.29,86.75Zm-1.4-1.38-.1.22c0,.09,0,.19.1.09a.76.76,0,0,1,.25-.28,1.19,1.19,0,0,1,.77-.18,2.18,2.18,0,0,1,.72.22s-1.09.59-1.24.68-.19.13-.16.22.12.09.22.06c.4-.15.56-.12.9-.28l0,0a2.69,2.69,0,0,0,.69-.47.18.18,0,0,0,.12,0,1,1,0,0,0,.25-.56c0-.06-.31-.09-.4-.12a6.78,6.78,0,0,0-.91-.25A1.16,1.16,0,0,0,54.89,85.37Zm6-.43a.37.37,0,0,1,.12.25c-.09.21-.75.46-1,.53,0,0-.31.06-.28,0l0,0a3.19,3.19,0,0,1,.53-.68C60.47,84.81,60.69,84.75,60.91,84.94Zm-.66-.41a6.23,6.23,0,0,0-.84,1.19,2.1,2.1,0,0,1-.47-.19c-.12-.09-.25.06-.31.19a3.88,3.88,0,0,0-.34.71l-.1.25c0,.13,0,.16.13.06v0c.15-.18.31-.65.4-.59a1.83,1.83,0,0,0,1.94-.19,1.34,1.34,0,0,0,.65-1.34.51.51,0,0,0-.47-.37A1,1,0,0,0,60.25,84.53Zm153.5,31.23s-.06,0-.09.09-.1.34-.16.47,0,.06.09,0a1.2,1.2,0,0,0,.32-.16c.49-.22,2.93-1.12,3.58-1.37h0s.1,0,.1-.09.09-.31.12-.44,0-.06-.06-.06C216.93,114.54,214.4,115.48,213.75,115.76Zm4-4.71c-.56.93-2.43,1.53-3.86,1.5a11,11,0,0,1,1.87-1.72h0A1.72,1.72,0,0,1,217.74,111.05ZM216,110c-.81.59-1.74,1.87-2.71,2.49a4.27,4.27,0,0,1-1.34-.56c.06-.25.09-.81,0-.75a16.87,16.87,0,0,1-2.9,1.13c-.09,0-.12.59-.09.81,0,.06,0,.06.09.06a.69.69,0,0,0,.25,0,3.66,3.66,0,0,1-5.3,2.46c-.19-.06-.53,0-.12.28a4.89,4.89,0,0,0,3.27.78c1.15-.25,2.24-1.06,2.53-3.58a11.32,11.32,0,0,0,2-.75,1.37,1.37,0,0,0,.62.87,6.67,6.67,0,0,0-.34,1.37c0,.22.06.47.22.1s.25-.91.44-1.35a5.08,5.08,0,0,0,1.4.19l0,0a5.08,5.08,0,0,0,3.46-1.21,2.93,2.93,0,0,0,.81-1.78C218.27,109.71,216.84,109.37,216,110Zm-9.88-2a2.37,2.37,0,0,0-.18.53,2.84,2.84,0,0,0,.28.41,3.19,3.19,0,0,1,.59,2.46c0,.06,0,.16,0,.16v0c.22,0,.34-.78.34-1.19a3.77,3.77,0,0,0-.9-2.37C206.18,107.9,206.12,107.9,206.08,108Zm1.62-.56s-.06,0-.09.09a2.61,2.61,0,0,1-.16.47c0,.06,0,.06.1,0a1.75,1.75,0,0,0,.31-.15l0,0c.5-.22,2.09-.87,2.74-1.12,0,0,.1,0,.1-.1s.09-.31.12-.43,0-.07-.06-.07C210,106.47,208.36,107.15,207.7,107.4Zm-6-.78s-.06,0-.09.1a4.33,4.33,0,0,1-.16.46c0,.07,0,.07.1,0a1.47,1.47,0,0,0,.31-.15h0c.53-.22,2.46-1,3.12-1.28,0,0,.09,0,.09-.09s.1-.31.13-.44,0-.06-.07-.06Zm3.15,4.8c-.62.88-3.52,1.62-4.64,1.53a14.23,14.23,0,0,1,2.62-2A2.16,2.16,0,0,1,204.8,111.42ZM199.88,104a4.06,4.06,0,0,0-.38.72.13.13,0,0,0,0,.15,4.39,4.39,0,0,0,.38.63c.18,2.4.71,3.65.81,6.39a13.62,13.62,0,0,1-1.25,1.09,11.07,11.07,0,0,1-3.15-.37c-.5-.13-.28.12-.15.21l0,0a5.39,5.39,0,0,0,2.3,1.12c1.93.34,5.11-.25,6.24-1.44a2.44,2.44,0,0,0,.71-1.68c-.09-1-1.4-1.12-2-1-.91.22-1.65,1.16-2.47,1.84a2.87,2.87,0,0,0,.19-1.18c-.09-1.9-.5-3-.68-4.68.09-.16.37-.62.43-.75s-.56-.59-.75-1.06C200,103.88,199.94,103.88,199.88,104ZM187,117.61c-.7.31-2.28,1-2.9,1.25,0,0-.06,0-.09.09a3,3,0,0,1-.14.47c0,.06,0,.06.09,0a1.21,1.21,0,0,0,.29-.16l0,0c.5-.22,2-.88,2.58-1.13,0,0,.08,0,.08-.09s.09-.31.12-.44S187.05,117.61,187,117.61Zm-4.6-.44a6.59,6.59,0,0,1-.41.72c-.2-.15-.47-.31-.64-.44s-.15-.06-.21,0l0,0c-.11.19-.26.44-.38.66a.15.15,0,0,0,.09.22c.18.12.5.31.67.4s.09,0,.15-.06a2.6,2.6,0,0,0,.38-.62c.27.18.5.31.71.43.05,0,.08,0,.14,0a6.89,6.89,0,0,0,.38-.62c.06-.13,0-.16-.06-.22s-.46-.31-.64-.44S182.42,117.11,182.39,117.17Zm-.61-5.36a3.42,3.42,0,0,1,.46,1,2.64,2.64,0,0,1-1.69.34.33.33,0,0,1-.27-.19c-.14-.24-.23-.49-.38-.71s-.2.53-.17,1a5.21,5.21,0,0,1,.64,2.44c-.67,1.62-3.05,2-4,1.31s-.53-2.31-.39-2.9c.06-.19-.05-.47-.2-.1-.35.91-.85,3.06.35,4a2.91,2.91,0,0,0,4.16-1.06,4.19,4.19,0,0,0,.35-2.58,2.37,2.37,0,0,0,1.76-.6,3.56,3.56,0,0,0,.15-1.06,3.22,3.22,0,0,0-.68-1.93C181.78,110.53,181.72,111.47,181.78,111.81Zm-4-1.12c-.11.19-.26.47-.35.65l0,0c-.06.07-.06.13,0,.16s.41.25.59.34a.08.08,0,0,0,.14,0,4.26,4.26,0,0,0,.35-.62c.06-.06.06-.13,0-.16s-.46-.28-.64-.4S177.79,110.63,177.76,110.69Zm7.12-2.21c-.11.18-.26.46-.35.65l0,0c-.06.06-.06.13,0,.16s.41.25.59.34.11,0,.14,0,.27-.44.36-.62,0-.13,0-.16-.47-.31-.65-.41S184.91,108.41,184.88,108.48Zm-8.85-.16s-.05,0-.08.09-.09.35-.15.47,0,.06.09,0a1.34,1.34,0,0,0,.29-.15l0,0c.5-.22,2.31-1,2.93-1.28,0,0,.09,0,.09-.09l.12-.44c0-.06,0-.06-.06-.06C178.58,107.23,176.65,108.07,176,108.32Zm11.46-1.56a7.88,7.88,0,0,0-.38.78.2.2,0,0,0,0,.25c.12.22.29.37.38.53h0a55.38,55.38,0,0,0,1.35,7.08c-.18.46-.79.43-1.29,0-1-.84-1.08-3.28-1.52-4.55-.06-.16-.12-.16-.15,0a4.16,4.16,0,0,0-.06,1.1c.06.59.29,1.18.38,1.8-.26.94-2.31,1.22-2.78,1-.15-.09-.18-.4-.27-.09-.14.53-.14,1,.15,1.18a3.38,3.38,0,0,0,2.64-.59,1.33,1.33,0,0,0,.44-.78,3.13,3.13,0,0,0,1.14,2.12c.32.22,1,.41,1.35,0a2,2,0,0,0,.29-1.31c0-1.49-.79-4.24-1.2-6.73a5.08,5.08,0,0,0,.35-.72c.06-.19-.44-.5-.67-1C187.58,106.67,187.55,106.7,187.49,106.76Zm2.75-.19s-.05.07-.05.16l-.15.87a1.23,1.23,0,0,0,0,.47c.09.56.23,1.15.35,1.72.24,1.24.47,2.46.67,3.61a23.9,23.9,0,0,1,.36,2.75c0,.15.08.15.11,0a4.91,4.91,0,0,0,.15-1.5,19,19,0,0,0-.32-2.34c-.18-1-.41-2.12-.59-3.06s-.35-1.74-.44-2.58c0-.1-.06-.13-.09-.13Zm-2-2.22-.17.35s0,.06,0,.11a1.27,1.27,0,0,1,.09.39c-.21.21-.43.24-.59.1a.6.6,0,0,1-.13-.48c0-.16,0-.22-.11-.11s-.12.14-.13.22c-.06.52-.27.76-.65.78s-.42-.16-.25-.66c0-.1,0-.22-.14,0-.36.76-.14,1.18.22,1.24a.8.8,0,0,0,.83-.61.57.57,0,0,0,.67.24c.32-.09.39-.25.48-.53a1.77,1.77,0,0,0,0-1C188.25,104.28,188.21,104.32,188.2,104.35Zm3.42,0a.39.39,0,0,1,.12.25c-.09.22-.7.47-.94.53,0,0-.29.06-.26,0l0,0a2.65,2.65,0,0,1,.5-.69C191.21,104.18,191.42,104.12,191.62,104.3Zm-.61-.4a5.79,5.79,0,0,0-.79,1.18,1.13,1.13,0,0,1-.44-.19c-.15-.09-.24.07-.3.19a6.8,6.8,0,0,0-.32.72l-.09.25c0,.12,0,.15.12.06v0c.15-.19.29-.66.38-.59a1.63,1.63,0,0,0,1.82-.19A1.37,1.37,0,0,0,192,104a.48.48,0,0,0-.44-.38A.83.83,0,0,0,191,103.9Zm-2-1.72c-.71.31-3.08,1.24-3.7,1.52,0,0,0,0-.08.1s-.09.34-.15.47,0,.06.09,0a1.4,1.4,0,0,0,.29-.16c.47-.22,2.76-1.12,3.37-1.37h0s.09,0,.09-.09.09-.32.11-.44S189,102.18,189,102.18Zm-27.75,12.31c.06.13.12.32.2.5l0,.07h-.05c-.21,0-1.18-.28-1.21-.6s.44-.59.65-.59S161.09,114.12,161.24,114.49Zm8.91-2.08a5.25,5.25,0,0,1,.94,1.8c-.12.35-.68.6-1.26.6a2.07,2.07,0,0,1-.88-.19l0,0,0,0a1.6,1.6,0,0,0,.46-1,.69.69,0,0,0-.2-.41,2.28,2.28,0,0,0-2.2-.21,1.25,1.25,0,0,0-.64,1c0,.13,0,.16,0,.19a.88.88,0,0,0,.17-.06A1.76,1.76,0,0,1,167,114a1.14,1.14,0,0,1,.85.35l0,0,0,0a7.64,7.64,0,0,1-3.28.78,4,4,0,0,1-2-.47,2.74,2.74,0,0,1-1.14-1.15.67.67,0,0,1-.12-.19.26.26,0,0,0-.21-.12c-.08,0-.17.06-.29.18s-.41.41-.61.63a3.16,3.16,0,0,1-1.15,1,1,1,0,0,1-.35.07,1.35,1.35,0,0,1-1-.47l0,0,0,0a1.85,1.85,0,0,0,.27-.91.18.18,0,0,0-.06-.15l-.06.06a3,3,0,0,1-1.23,1.09,10.25,10.25,0,0,1-3.9.84,4.68,4.68,0,0,1-1.17-.12,2,2,0,0,1-1.44-1.12,1.77,1.77,0,0,1,.12-1.47c.06-.12.06-.22,0-.25s-.12.06-.2.19a2.7,2.7,0,0,0-.47,2.15,2,2,0,0,0,1.26,1.4,4.78,4.78,0,0,0,1.67.25,8.14,8.14,0,0,0,4.64-1.33l.14-.13,0,0a1.79,1.79,0,0,0,1.29,1h.09a2.75,2.75,0,0,0,1.17-.93l.06-.06v.06c.06.93,1.73,1.15,2,1.15.09,0,.15-.31.15-.56v-.06l.06,0a4.51,4.51,0,0,0,2.23.53,7.67,7.67,0,0,0,3.89-1.12l0,0,0,0a1.77,1.77,0,0,0,1.47.74,1.71,1.71,0,0,0,1.11-.37c.65-.5.62-1.59.38-2.46a2.92,2.92,0,0,0-.94-1.59A2.59,2.59,0,0,0,170.15,112.41ZM154.53,111c-.12.22-.26.5-.41.72-.21-.16-.47-.31-.65-.44s-.14-.06-.2,0l0,0c-.12.19-.26.44-.38.66s0,.15.09.22a6.58,6.58,0,0,0,.67.4.11.11,0,0,0,.15-.06,3.9,3.9,0,0,0,.38-.62c.26.18.5.31.7.43s.12,0,.15,0,.29-.47.38-.62,0-.16-.06-.22-.47-.31-.64-.44S154.56,110.94,154.53,111Zm13.21-1.84-3.25,1.44s-.06,0-.09.09a4,4,0,0,1-.14.47c0,.06,0,.06.09,0a1.21,1.21,0,0,0,.29-.16h0c.5-.21,2.31-1,2.93-1.27,0,0,.09,0,.09-.1s.08-.31.11-.43S167.77,109.16,167.74,109.16Zm1.59,0,0,0a5.93,5.93,0,0,0-.36.65c-.05.06-.05.13,0,.16s.41.25.59.34.12,0,.15,0l.35-.63c.06-.06.06-.12,0-.15s-.47-.28-.65-.41S169.36,109.13,169.33,109.2Zm-9.88-.22c0,.06-.06.15-.09.22s0,.18.09.09a1,1,0,0,1,.24-.25,1,1,0,0,1,.73-.19,2.2,2.2,0,0,1,.67.22c0,.06-1,.59-1.17.69s-.18.12-.15.21.12.1.21.07c.38-.16.53-.13.85-.28l0-.07a2.06,2.06,0,0,0,.64-.46.18.18,0,0,0,.12,0,1.17,1.17,0,0,0,.24-.57c0-.06-.3-.09-.38-.12a7.61,7.61,0,0,0-.85-.25A1.12,1.12,0,0,0,159.45,109Zm-3.57-1c-.71.31-3.08,1.25-3.7,1.53,0,0-.05,0-.08.09a4.92,4.92,0,0,1-.15.47c0,.06,0,.06.09,0a1,1,0,0,0,.29-.16h0c.47-.21,2.75-1.12,3.37-1.37,0,0,.09,0,.09-.09s.09-.31.12-.44S155.91,108,155.88,108Zm12.07-.65c0,.06-.06.15-.09.21s0,.19.09.1a.74.74,0,0,1,.23-.28,1.05,1.05,0,0,1,.74-.19,2.2,2.2,0,0,1,.67.22,12.28,12.28,0,0,1-1.17.68c-.09.07-.15.13-.15.22s.12.09.21.06c.38-.15.52-.12.85-.28l0,0a2,2,0,0,0,.64-.47.18.18,0,0,0,.12,0,1.08,1.08,0,0,0,.23-.56c0-.06-.29-.09-.38-.12a6.53,6.53,0,0,0-.85-.25A1.1,1.1,0,0,0,168,107.36Zm4.1-.82-.12.88a1.83,1.83,0,0,0,0,.47c.09.56.24,1.15.33,1.71.23,1.28.47,2.46.7,3.65a23.63,23.63,0,0,1,.35,2.74c0,.16.09.16.12,0a6,6,0,0,0,.15-1.49,17.52,17.52,0,0,0-.33-2.34c-.17-1-.41-2.12-.58-3.06s-.35-1.74-.44-2.59c0-.09-.06-.12-.09-.12l0,0S172.05,106.45,172.05,106.54Zm-1.2-1.86a.39.39,0,0,0,.09.43,3.62,3.62,0,0,0,.5.32,1.47,1.47,0,0,0-.38.21h.05c0,.1-.05.25-.08.35s0,.06.06,0a9.88,9.88,0,0,1,1.81-.62,2.57,2.57,0,0,0,.21-.41c0-.06,0-.09-.06-.06a3.44,3.44,0,0,1-.82.12,1.82,1.82,0,0,1-1-.53c0-.09.47-.28.56-.28.29,0,.35.34.41.34s.26-.37.26-.46a.59.59,0,0,0-.44-.41A2.08,2.08,0,0,0,170.85,104.68Zm-1.17-1.37s-.06,0-.09.09-.09.34-.15.47,0,.06.09,0a1.46,1.46,0,0,0,.3-.16c.46-.22,2.75-1.12,3.37-1.37h0s.09,0,.09-.09.09-.31.12-.44,0-.06-.06-.06C172.67,102.09,170.29,103,169.68,103.31Zm-39,17.18s-.06,0-.09.1-.1.34-.16.47,0,.06.1,0a1.84,1.84,0,0,0,.31-.16h0c.5-.22,2.09-.87,2.74-1.12,0,0,.1,0,.1-.09s.09-.32.12-.44,0-.06-.06-.06Zm6.3-4.1c-.13.21-.28.49-.44.71-.22-.15-.5-.31-.68-.43s-.16-.07-.22,0l0,0c-.13.18-.28.43-.41.65s0,.16.1.22.53.31.71.41.1,0,.16-.07a2.89,2.89,0,0,0,.4-.62c.28.19.53.31.75.44.06,0,.1,0,.16,0a5.93,5.93,0,0,0,.4-.62c.07-.12,0-.16-.06-.22s-.5-.31-.68-.43S137,116.32,137,116.39Zm-3-7.33-.1.22c0,.09,0,.18.1.09a.85.85,0,0,1,.25-.25,1.14,1.14,0,0,1,.78-.19,2.47,2.47,0,0,1,.71.22c0,.06-1.09.59-1.24.69s-.19.12-.16.22.12.09.22.06c.4-.16.56-.13.9-.28l0-.06a2.69,2.69,0,0,0,.69-.47.18.18,0,0,0,.12,0,1.1,1.1,0,0,0,.25-.57c0-.06-.31-.09-.41-.12a7.88,7.88,0,0,0-.9-.25A1.18,1.18,0,0,0,134,109.06Zm-11.1-.19a2.14,2.14,0,0,1-.1.22c0,.09,0,.19.1.09a.69.69,0,0,1,.25-.28,1.21,1.21,0,0,1,.78-.19,2.7,2.7,0,0,1,.71.22s-1.09.6-1.24.69-.19.12-.16.22.13.09.22.06c.4-.16.56-.12.9-.28l0,0a2.69,2.69,0,0,0,.69-.47.18.18,0,0,0,.12,0,1.11,1.11,0,0,0,.25-.56c0-.06-.31-.1-.4-.13-.28-.06-.6-.21-.91-.25A1.19,1.19,0,0,0,122.86,108.87Zm17.36-.59s-.06,0-.09.09-.09.34-.16.47,0,.06.1,0a1.15,1.15,0,0,0,.31-.16c.5-.21,2.93-1.12,3.58-1.4l0,0s.09,0,.09-.09.09-.31.12-.44,0-.06-.06-.06C143.4,107.06,140.88,108,140.22,108.28ZM131,115.67a4.64,4.64,0,0,1,2.22.65.85.85,0,0,1-.84.63,2.15,2.15,0,0,1-1.66-1.22l0-.06h.06A2.08,2.08,0,0,1,131,115.67Zm-7-2.84c.15,0,.22.25.31.5a5.34,5.34,0,0,0,.34.75l0,.06h-.06a3.33,3.33,0,0,1-1.31-.59.8.8,0,0,1,.19-.5.57.57,0,0,1,.44-.25H124Zm8.54-.56a3.35,3.35,0,0,1-1.59,1.4l-.06,0v-.06a4,4,0,0,1,.87-1.84.29.29,0,0,1,.25-.12l0,0A.75.75,0,0,1,132.46,112.27Zm5.27-4.49a48.36,48.36,0,0,0,.9,5.39c-.12.38-.28.88-.81.91h-.06a2.39,2.39,0,0,1-1.28-.34h0v0a1.64,1.64,0,0,0,.16-.59c0-.12,0-.22-.07-.22l0,.07c-.68,1.24-3.77,1.74-5.3,1.74h-.37l.09-.06a3.27,3.27,0,0,0,1.81-2.84,1.46,1.46,0,0,0-.34-.9.43.43,0,0,0-.31-.16.88.88,0,0,0-.6.38,6.36,6.36,0,0,0-1,2.4c0,.12-.07.25-.13.4a6.08,6.08,0,0,1-2.49.5,4.3,4.3,0,0,1-2.31-.56,3.6,3.6,0,0,1-1.09-1.09l-.28-.38a.24.24,0,0,0-.22-.12.51.51,0,0,0-.28.09,2,2,0,0,0-.9,1.44,1,1,0,0,0,.4.93l0,0,0,0a15.36,15.36,0,0,1-3.43,2.3,2,2,0,0,0-.25.19h.06a2.34,2.34,0,0,0,.47-.09l.19-.07c.93-.25,2.9-.77,3.24-2.21v0h0a7.2,7.2,0,0,0,1.75.5c.06,0,.15-.22.15-.44v-.06l.07,0a4.13,4.13,0,0,0,2.18.53,4.47,4.47,0,0,0,1.56-.25l.06,0v.06a.64.64,0,0,1,0,.22c0,.06,0,.16,0,.22s0,0,.06,0h.37c.28,0,.63,0,.72,0h0v0c.84,2.71,2.37,2.31,2.37,2.31a1.24,1.24,0,0,0,.69-1,1.83,1.83,0,0,0-.16-1.53l-.06-.06h.06a5.91,5.91,0,0,0,2.78-1.15l0,0,0,0a2.55,2.55,0,0,0,1.56.81,1,1,0,0,0,.28-.06c.34-.16.56-.69.78-1.22l0-.09,0,.09a2,2,0,0,0,2.12,1.62,6.06,6.06,0,0,0,2.9-.9,4.73,4.73,0,0,0,1.28-1.13,1.09,1.09,0,0,0,.15-.78l0,0a5.81,5.81,0,0,1-2.37,1.4.86.86,0,0,1-.28,0A1.83,1.83,0,0,1,141,112.3a3.15,3.15,0,0,1,2.28-1,1.17,1.17,0,0,1,.65.16.22.22,0,0,0,.16.06,0,0,0,0,0,0,0s0-.13-.06-.22a2.14,2.14,0,0,0-1.53-.62,1.2,1.2,0,0,0-.34,0,2.68,2.68,0,0,0-1.72,2.46,2.28,2.28,0,0,0,.47,1.19l0,.06h-.06c-1.47,0-1.93-1.59-2.21-3.09-.13-.59-.19-1.24-.28-1.9-.13-1-.28-1.93-.47-2.81l0-.06A2.58,2.58,0,0,0,137.73,107.78Zm-1.5-2.21s-.06,0-.09.09-.1.34-.16.47,0,.06.1,0a1.84,1.84,0,0,0,.31-.16l0,0c.53-.21,2.09-.87,2.74-1.12,0,0,.1,0,.1-.09s.09-.31.12-.44,0-.06-.06-.06C138.57,104.63,136.89,105.29,136.23,105.57Zm-31.86,14.12s-.06,0-.09.09a3.74,3.74,0,0,1-.16.47c0,.06,0,.06.09,0a1.54,1.54,0,0,0,.32-.15c.49-.22,2.93-1.13,3.58-1.37h0s.1,0,.1-.1.09-.31.12-.43,0-.07-.06-.07C107.55,118.47,105,119.41,104.37,119.69Zm6.64-2.93a7,7,0,0,1-.44.72c-.21-.16-.49-.31-.68-.44s-.16-.06-.22,0l0,0c-.13.19-.28.44-.41.66s0,.15.1.21a6.47,6.47,0,0,0,.71.41c.07,0,.1,0,.16-.06a3.27,3.27,0,0,0,.41-.63c.28.19.53.32.74.44a.11.11,0,0,0,.16,0c.12-.16.31-.47.41-.63s0-.15-.07-.21-.5-.32-.68-.44S111,116.7,111,116.76Zm4.27-3.74a1.71,1.71,0,0,0,.47,1.4l0,0h-.06a10.51,10.51,0,0,1-2.12.25,5.32,5.32,0,0,1-1.47-.18c-1.12-.38-1.46-1.6-1.68-2.69a2.35,2.35,0,0,0-.31-.84c-.06-.06-.1-.09-.13-.09s-.06.06-.09.15a.73.73,0,0,1-.06.28c0,.07,0,.13-.07.25a1.24,1.24,0,0,1-.93,1.06,1.74,1.74,0,0,1-.59.1,1.32,1.32,0,0,1-.5-.06.1.1,0,0,0,0,.06,1.29,1.29,0,0,0,0,.93.5.5,0,0,0,.37.1c.13,0,.22,0,.28,0h.07l0,.06a4.17,4.17,0,0,1-4.18,3.21,6.4,6.4,0,0,1-2-.37.27.27,0,0,0-.16,0c-.06,0-.09,0-.09,0a.33.33,0,0,0,.09.18,7.6,7.6,0,0,0,3.37.81,2.93,2.93,0,0,0,.78-.09v.06c1.31-.37,2.49-2.46,2.53-3.9v0h0a1.62,1.62,0,0,0,1.21-1.28h.07l.09.47a6.71,6.71,0,0,0,.65,2c.44.65,1.59.81,2.5.81a8,8,0,0,0,1.49-.13,12.54,12.54,0,0,0,5-1.93.85.85,0,0,0,.22-.81,13.59,13.59,0,0,1-2.46,1.15.57.57,0,0,1-.25,0,1.72,1.72,0,0,1-1.59-1.66,3.43,3.43,0,0,1,2.12-.93,1.56,1.56,0,0,1,1,.31.14.14,0,0,0,.1,0,.1.1,0,0,0,.06,0,.39.39,0,0,0,0-.16,2.9,2.9,0,0,0-1.72-.81C116.06,110.77,115.38,112.08,115.28,113Zm.84-4.77,0,0c-.12.19-.28.47-.37.65s-.06.13,0,.16.44.25.63.34.12,0,.15,0,.28-.44.38-.62.06-.13,0-.16l-.69-.4C116.19,108.19,116.15,108.19,116.12,108.25Zm-7.48-.72c0,.06-.06.16-.09.22s0,.19.09.09a.76.76,0,0,1,.25-.28,1.21,1.21,0,0,1,.78-.19,2.82,2.82,0,0,1,.72.22s-1.09.6-1.25.69-.19.12-.16.22.13.09.22.06l0,0c.41-.16.56-.13.91-.28a2.54,2.54,0,0,0,.68-.47.21.21,0,0,0,.13,0,1.2,1.2,0,0,0,.25-.56c0-.07-.32-.1-.41-.13a7.88,7.88,0,0,0-.9-.25A1.2,1.2,0,0,0,108.64,107.53Zm5.15-.44s-.07,0-.1.1a4.27,4.27,0,0,0-.19.53c0,.06,0,.06.1,0s.25-.13.34-.16c.53-.18,3.71-1.24,4.37-1.53v0s.09,0,.09-.1a4.1,4.1,0,0,1,.19-.5c0-.06,0-.06-.07-.06C117.78,105.75,114.44,106.84,113.79,107.09Zm-51,12.63s-.07,0-.1.1a3.2,3.2,0,0,0-.18.53c0,.06,0,.06.09,0s.25-.13.34-.16c.53-.19,3.71-1.25,4.37-1.53,0,0,.09,0,.09-.09s.13-.37.19-.5,0-.06-.06-.06C66.74,118.35,63.4,119.44,62.75,119.72Zm1.84-3c-.13.19-.28.47-.38.65l0,0c-.06.07-.06.13,0,.16s.44.25.63.34.12,0,.15,0a5.73,5.73,0,0,0,.38-.62c.06-.06.06-.13,0-.16s-.5-.31-.69-.4S64.62,116.67,64.59,116.73Zm6.08-6.33a.15.15,0,0,1-.07,0,1.54,1.54,0,0,0-.09.28,2.64,2.64,0,0,0-.09.59,4.54,4.54,0,0,1,.9,1.41s0,.06,0,.06a13.52,13.52,0,0,1-5.49,1.5,27.5,27.5,0,0,1-7-.1,13.66,13.66,0,0,1-4-1.46c-.09-.07-.18-.07-.21-.1h-.07v.07a.31.31,0,0,0,.1.15,5.39,5.39,0,0,0,2.06,1.72,16.1,16.1,0,0,0,6.45.87,20.82,20.82,0,0,0,7.39-1.4,2.08,2.08,0,0,0,1-.94,2.8,2.8,0,0,0,.12-1.46,2,2,0,0,0-.93-1.25Zm12.09-1a7.3,7.3,0,0,0-.37.66l0,0c-.06.06-.06.12,0,.15l.62.35c.07,0,.13,0,.16,0a6.88,6.88,0,0,0,.37-.63c.07-.06.07-.12,0-.15a5.34,5.34,0,0,0-.68-.41C82.82,109.37,82.79,109.37,82.76,109.43Zm7-.59c-.12.19-.28.47-.37.65l0,0c-.06.06-.06.12,0,.15s.44.25.63.35.12,0,.15,0,.28-.46.38-.62.06-.13,0-.16l-.69-.4C89.81,108.78,89.78,108.78,89.74,108.84Zm3.47-.72c-.07,0-.07,0-.1.1s-.09.34-.12.46,0,.07.06,0,.22-.12.31-.15h0c.53-.22,2.93-1.12,3.59-1.37,0,0,.06,0,.09-.1s.09-.31.13-.43,0-.07-.07-.07C96.39,106.91,93.86,107.84,93.21,108.12Zm-4.81-1.46c0,.06-.06.15-.09.21s0,.19.09.1a1,1,0,0,1,.25-.25,1.16,1.16,0,0,1,.78-.19,2.45,2.45,0,0,1,.72.22s-1.09.59-1.25.69a.26.26,0,0,0-.15.22c0,.09.12.09.22.06l-.07-.06c.44-.16.6-.13.94-.29a2.22,2.22,0,0,0,.68-.46.16.16,0,0,0,.13,0,1.12,1.12,0,0,0,.25-.56c0-.06-.31-.09-.41-.12a7.88,7.88,0,0,0-.9-.25A1.2,1.2,0,0,0,88.4,106.66Zm13.85-.88c-.06.19-.06.35-.12.53a2.84,2.84,0,0,0,.06,1.16c.09.62.25,1.21.37,1.81.22,1.21.47,2.43.59,3.64.07.47,0,.91.07,1.38,0,.22.21-.22.21-.25,0-.19.07-.41.1-.63a3.7,3.7,0,0,0,.06-1.15h0c-.13-1.62-.59-3.21-.78-4.8-.06-.47-.22-.91-.25-1.37C102.53,105.88,102.38,105.32,102.25,105.78ZM83,105.55a1.11,1.11,0,0,1,.23.66,1,1,0,0,1,0,.24.93.93,0,0,1-.22-.09l-.58-.22c-.13,0,0-.23,0-.23a1.43,1.43,0,0,1,.22-.3l.12-.08C82.79,105.5,82.91,105.48,83,105.55Zm-.07-.61a1.65,1.65,0,0,0-1,1.18c-.08.27,0,.42.11.51a3.25,3.25,0,0,0,.88.33,7.7,7.7,0,0,1-2,1.77c-.29.17-.24.35.13.19a4.6,4.6,0,0,0,2.34-1.86l.28.08c.16,0,.12.06.21-.2a2.19,2.19,0,0,0,.08-.27l-.41-.14,0-.14a2.35,2.35,0,0,0-.11-1C83.29,105,83.11,104.91,82.89,104.94Zm-7.7,8.14a2.83,2.83,0,0,1,.53.94,1.83,1.83,0,0,1-1.22-.35.17.17,0,0,1,0-.25.88.88,0,0,1,.37-.37h0s.07,0,.1-.06S75.12,113,75.19,113.08ZM86.35,113a5.71,5.71,0,0,1-4.4,1.4,23,23,0,0,1,2.28-1.84v0a1.24,1.24,0,0,1,.68-.15A2.25,2.25,0,0,1,86.35,113Zm9.26-.69c.06,0,.12.06.15.16a3.44,3.44,0,0,0,.72,1.12,5.61,5.61,0,0,1-1.56-.5c-.13-.06-.13-.12-.06-.22a2.15,2.15,0,0,1,.56-.47v0A.17.17,0,0,1,95.61,112.3Zm3.8-7.2c-.13.25-.22.47-.34.72a.13.13,0,0,0,0,.15c0,.06,0,.09,0,.16a3.26,3.26,0,0,0,.31.62c.09.53.22,1,.31,1.56.31,1.5.62,3,.91,4.46-.13.34-.78.56-1.47.59a4.14,4.14,0,0,1-1.9-.28A2.89,2.89,0,0,1,96,111.93c-.09-.19-.22-.25-.34-.22a.66.66,0,0,0-.34.15,3.2,3.2,0,0,0-.66.75v0l0,0,0,0a2.44,2.44,0,0,1-3.27,1v0a2.8,2.8,0,0,0,.65-1.09,1,1,0,0,0,.06-.5.69.69,0,0,0-.4-.4,2.72,2.72,0,0,0-1.31-.31,2.5,2.5,0,0,0-1.09.22,2,2,0,0,0-.75,1.24.18.18,0,0,0,0,.19,0,0,0,0,0,.06,0s.06,0,.1-.06a.47.47,0,0,1,.37-.16,1.31,1.31,0,0,1,.47.09,2,2,0,0,1,.78.53v0a12.3,12.3,0,0,1-4.52,1v0a2.26,2.26,0,0,0,.84-1,2.87,2.87,0,0,0,.28-1.15.77.77,0,0,0-.25-.56,1.26,1.26,0,0,0-.62-.31,1.79,1.79,0,0,0-1.53.28c-.87.62-2.25,1.93-3.24,2.62a1.94,1.94,0,0,1-1-.19,2.41,2.41,0,0,1-.9-.53l.12-.44q0-.14,0-.18s0-.07-.06-.07h-.1s-.06,0-.09.07a5.89,5.89,0,0,1-1.25.62,6,6,0,0,1-1.55.41,5,5,0,0,0-.47-1.38,1.57,1.57,0,0,0-.34-.46.62.62,0,0,0-.44-.19.8.8,0,0,0-.5.28,3,3,0,0,0-.44.65,2.11,2.11,0,0,0-.12,1.6,1,1,0,0,0,.87.56,5.91,5.91,0,0,0,1,0v0a4.58,4.58,0,0,1-2.59,2.59,5.74,5.74,0,0,1-3.15.15.25.25,0,0,0-.21,0,.1.1,0,0,0-.1.1s0,.06,0,.09a.47.47,0,0,0,.22.12c1.69.5,3,.63,4,.19s1.65-1.5,2.18-3.34a3.45,3.45,0,0,0,1-.25,8.65,8.65,0,0,0,1.41-.62,3.55,3.55,0,0,0,1.21,1.15v0a5.32,5.32,0,0,0-.5,1.52V117a.13.13,0,0,0,0,.09h.07a.49.49,0,0,0,.09-.18c.16-.38.4-1,.62-1.5a16.13,16.13,0,0,0,4.46.22,14,14,0,0,0,5.83-1.47,1.92,1.92,0,0,0,2,.87,3,3,0,0,0,1.74-1.27.83.83,0,0,0,.38.47,7.14,7.14,0,0,0,1.87.49H97s0,0,.06-.06a.61.61,0,0,0,0-.15l.06-.41a5.24,5.24,0,0,0,2.93.06,1,1,0,0,0,.72-.62,6.13,6.13,0,0,0-.12-3.15c-.25-1.16-.47-2.28-.72-3.37l.34-.47a.23.23,0,0,0,.06-.15.24.24,0,0,0-.06-.19,3,3,0,0,1-.68-1.06c0-.06-.07-.09-.07-.12s0,0,0,0S99.44,105.07,99.41,105.1Zm0-.1h0a.1.1,0,0,1,0-.06Zm-3.66-1.55a.37.37,0,0,1,.12.24c-.09.22-.75.47-1,.53,0,0-.32.07-.29,0l0,0a4.29,4.29,0,0,1,.53-.68C95.34,103.32,95.56,103.26,95.78,103.45Zm-.66-.41a6.49,6.49,0,0,0-.84,1.18,1.62,1.62,0,0,1-.47-.18c-.15-.1-.25.06-.31.18a5.3,5.3,0,0,0-.34.72l-.09.25c0,.13,0,.16.12.06l0,0c.19-.18.31-.65.44-.59a1.81,1.81,0,0,0,1.93-.19,1.33,1.33,0,0,0,.65-1.34.51.51,0,0,0-.46-.37A.93.93,0,0,0,95.12,103Zm-5.24.37c0,.07-.06.16-.09.22s0,.19.09.1a.69.69,0,0,1,.25-.28,1.16,1.16,0,0,1,.78-.19,2.45,2.45,0,0,1,.72.22s-1.09.59-1.25.68-.19.13-.16.22.13.09.22.06c.41-.15.56-.12.91-.28l0,0a2.54,2.54,0,0,0,.68-.47.21.21,0,0,0,.13,0,1.12,1.12,0,0,0,.25-.56c0-.06-.32-.09-.41-.12a6.25,6.25,0,0,0-.9-.25A1.19,1.19,0,0,0,89.88,103.41ZM41,118.63c-.75.31-3.27,1.25-3.93,1.53,0,0-.06,0-.09.09s-.1.34-.16.47,0,.06.1,0a1.31,1.31,0,0,0,.31-.16c.5-.22,2.93-1.12,3.58-1.37h0s.1,0,.1-.09.09-.31.12-.44S41,118.63,41,118.63Zm3-2.09c-.12.22-.28.5-.43.72-.22-.16-.5-.31-.69-.44s-.15-.06-.22,0l0,0c-.12.19-.28.44-.4.66s0,.15.09.21a6.59,6.59,0,0,0,.72.41c.06,0,.09,0,.15-.06a3.27,3.27,0,0,0,.41-.63c.28.19.53.31.75.44.06,0,.09,0,.15,0a7.49,7.49,0,0,0,.41-.63c.06-.12,0-.15-.06-.21s-.5-.32-.69-.44S44.05,116.48,44,116.54Zm-2.49-7.3c0,.07-.06.16-.09.22s0,.19.09.09a.85.85,0,0,1,.25-.28,1.21,1.21,0,0,1,.78-.18,2.18,2.18,0,0,1,.72.22c0,.06-1.1.59-1.25.68s-.19.13-.16.22.13.09.22.06c.41-.15.56-.12.9-.28l0,0a2.49,2.49,0,0,0,.69-.47.18.18,0,0,0,.12,0,1,1,0,0,0,.25-.56c0-.06-.31-.09-.4-.12a6,6,0,0,0-.91-.25A1.18,1.18,0,0,0,41.52,109.24Zm-12.84-.15a1.47,1.47,0,0,0-.1.22c0,.09,0,.18.1.09a.63.63,0,0,1,.25-.28,1.12,1.12,0,0,1,.77-.19,2.45,2.45,0,0,1,.72.22s-1.09.59-1.25.69-.18.12-.15.21.12.1.22.07c.4-.16.56-.13.9-.28l0,0a2.51,2.51,0,0,0,.69-.46.18.18,0,0,0,.12,0,1.19,1.19,0,0,0,.25-.57c0-.06-.31-.09-.41-.12a7.88,7.88,0,0,0-.9-.25A1.18,1.18,0,0,0,28.68,109.09ZM47.41,108c-.06,0-.06,0-.09.09s-.09.34-.13.47,0,.06.07,0,.21-.12.31-.16l3.58-1.37h0s.07,0,.1-.09.09-.31.12-.44,0-.06-.06-.06C50.59,106.81,48.07,107.75,47.41,108Zm-7.48,8.17h0a.84.84,0,0,1-.84.62,2.14,2.14,0,0,1-1.68-1.21l0-.07h.29A3.86,3.86,0,0,1,39.93,116.2Zm-10.07-3.5c.16,0,.22.25.31.5a3.32,3.32,0,0,0,.35.75l0,.06h-.07a3.45,3.45,0,0,1-1.34-.59.89.89,0,0,1,.19-.5.59.59,0,0,1,.44-.25h.09Zm9.32-.53a3.6,3.6,0,0,1-1.62,1.41l-.06,0v-.06a4,4,0,0,1,.87-1.87.36.36,0,0,1,.28-.13h0A.75.75,0,0,1,39.18,112.17Zm6.24-4.55,0,.31a45.17,45.17,0,0,0,.84,5.12c-.09.37-.28.87-.81.9h-.06a2.37,2.37,0,0,1-1.28-.34h0v0a1.76,1.76,0,0,0,.15-.59c0-.13,0-.22-.06-.22l0,.06c-.69,1.25-4.61,1.75-6.14,1.75h-.41l.07-.07a3.55,3.55,0,0,0,1.8-2.87,1.46,1.46,0,0,0-.34-.9.45.45,0,0,0-.31-.16.84.84,0,0,0-.59.38,7.1,7.1,0,0,0-1,2.4,2.35,2.35,0,0,1-.13.41,7.72,7.72,0,0,1-3,.49,5.33,5.33,0,0,1-2.65-.56,3.6,3.6,0,0,1-1.09-1.09l-.28-.37a.22.22,0,0,0-.22-.13.54.54,0,0,0-.28.09,2,2,0,0,0-.9,1.44,1.08,1.08,0,0,0,.4.94l0,0,0,0A15.93,15.93,0,0,1,25.68,117l-.25.18h.07A3,3,0,0,0,26,117l.19-.06c.94-.25,2.9-.78,3.24-2.22v0h0a7.2,7.2,0,0,0,1.75.5c.06,0,.16-.22.16-.44v-.06l.06,0a5.41,5.41,0,0,0,2.68.53,5.65,5.65,0,0,0,1.87-.25l.06,0v.06a.61.61,0,0,1,0,.22c0,.07,0,.16,0,.22s0,0,.06,0h.38c.31,0,.62,0,.71,0h0v0c.54,2.83,2.37,2.4,2.37,2.4.32-.09.56-.43.69-1a1.84,1.84,0,0,0-.16-1.56l-.06-.06H40a9.76,9.76,0,0,0,3.65-1.19l0,0,0,0a2.58,2.58,0,0,0,1.56.81.9.9,0,0,0,.31-.06c.35-.16.57-.69.78-1.22l0-.09,0,.09a2,2,0,0,0,2.15,1.62,6.26,6.26,0,0,0,2.93-.9,4.71,4.71,0,0,0,1.28-1.12,1.16,1.16,0,0,0,.15-.78l0,0A5.53,5.53,0,0,1,50.56,114a.89.89,0,0,1-.28,0c-.65,0-1.4-.65-1.56-1.81a3.18,3.18,0,0,1,2.28-1,1.27,1.27,0,0,1,.65.15.21.21,0,0,0,.16.06,0,0,0,0,0,0,0s0-.12-.06-.21a2.15,2.15,0,0,0-1.53-.63,1.16,1.16,0,0,0-.34,0A2.65,2.65,0,0,0,48.19,113a2.25,2.25,0,0,0,.47,1.21l0,.06h-.06a1.82,1.82,0,0,1-1.72-1.18,19.31,19.31,0,0,1-.78-3.87c-.12-1-.28-2-.46-2.83l0-.07A2.46,2.46,0,0,0,45.42,107.62Zm-9.9-2.15c-.07,0-.07,0-.1.09s-.09.35-.12.47,0,.06.06,0,.22-.12.31-.15c.53-.22,2.93-1.13,3.59-1.38h0s.06,0,.09-.09.09-.31.13-.43,0-.07-.07-.07C38.7,104.25,36.17,105.19,35.52,105.47Zm-15.78,8.62a.68.68,0,0,1-1.18-.15c.09-.35.28-.63.5-.63h0C19.31,113.31,19.56,113.53,19.74,114.09Zm-.53-1.9h0a.61.61,0,0,0-.28.12,1.93,1.93,0,0,0-.62,1c-.16.53-.28,1.47.25,1.87s1,.53,1.59-.43c-.87,3.52-4.55,3.42-5.8,3.08-.44-.12-.56.19-.09.38a6.48,6.48,0,0,0,3.86.21,4.2,4.2,0,0,0,2.43-3.67,3,3,0,0,0-.9-2.44.63.63,0,0,0-.37-.18Zm1.25-3.74c-.75.31-2.8,1.15-3.46,1.4,0,0-.06,0-.09.09a3.74,3.74,0,0,1-.16.47c0,.06,0,.06.1,0a1.75,1.75,0,0,0,.31-.15l0,0c.5-.22,2.46-1,3.12-1.28,0,0,.09,0,.09-.09s.09-.31.12-.44S20.52,108.45,20.46,108.45Zm-5.93,6.7a12,12,0,0,1-1.21.28l0,0a3.44,3.44,0,0,0,.84-1.12A2.81,2.81,0,0,1,14.53,115.15Zm-.25-9.26a6,6,0,0,0-.43.9,3.37,3.37,0,0,0,.34.81,12.65,12.65,0,0,1-.06,5.8c-1-2-4-4.52-5.86-5.52-.16-.09-.19,1.35.09,1.88a2.56,2.56,0,0,0,1.28.74c.15,0,.28,0,.47-.28,1.12,1,2.9,2.09,3.77,3.68a4.52,4.52,0,0,1-1.37,1.65l-.66.16a2,2,0,0,0-.12,1s0,0,.06,0a20.22,20.22,0,0,0,2.93-.59,3.14,3.14,0,0,0-.37-2.34,12.29,12.29,0,0,0,.46-6,7.19,7.19,0,0,0,.41-.65c.06-.16-.69-.75-.75-1.15,0-.13-.06-.22-.12-.19l0,0S14.32,105.86,14.28,105.89Zm-2.18-.69s-.06,0-.09.1a2.83,2.83,0,0,1-.16.46c0,.07,0,.07.1,0l.31-.16c.53-.22,2.93-1.12,3.58-1.37h0s.1,0,.1-.1.09-.31.12-.43,0-.06-.06-.06C15.28,104,12.76,104.92,12.1,105.2Zm181.09,35.41s-.06,0-.09.1a4.33,4.33,0,0,1-.16.46c0,.07,0,.07.1,0a1.47,1.47,0,0,0,.31-.15h0c.5-.22,2.46-1,3.12-1.28,0,0,.09,0,.09-.09l.13-.44c0-.06,0-.06-.07-.06Zm-1.37-2.24a7.45,7.45,0,0,1-.43.71c-.22-.15-.5-.31-.69-.43s-.16-.06-.22,0l0,0c-.12.18-.28.43-.4.65s0,.16.09.22.53.31.72.41a.11.11,0,0,0,.15-.07,2.86,2.86,0,0,0,.41-.62c.28.19.53.31.74.44s.13,0,.16,0a7.49,7.49,0,0,0,.41-.63c.06-.12,0-.15-.07-.22s-.5-.31-.68-.43S191.85,138.31,191.82,138.37Zm-8.07-3.9c-.13.19-.28.47-.38.65l0,0c-.06.06-.06.12,0,.15s.43.25.62.35a.11.11,0,0,0,.16,0,5.63,5.63,0,0,0,.37-.62c.06-.06.06-.12,0-.16s-.5-.31-.69-.4S183.78,134.41,183.75,134.47Zm2-3.62c-.75.32-4.11,1.41-4.74,1.69,0,0-.06,0-.09.09s-.13.37-.19.53,0,.06.1,0a2.84,2.84,0,0,1,.34-.15c.53-.19,3.71-1.25,4.36-1.5v0c.07,0,.1,0,.13-.1a5,5,0,0,0,.15-.49C185.77,130.85,185.74,130.85,185.71,130.85Zm20.14,1.72c-.12.19-.28.47-.37.65l0,0c-.07.07-.07.13,0,.16s.43.25.62.34.13,0,.16,0,.28-.47.37-.62.06-.13,0-.16-.5-.28-.68-.4S205.88,132.51,205.85,132.57Zm.84-2.73-.19.34s0,.07,0,.11a1.12,1.12,0,0,1,.09.39c-.21.21-.45.25-.62.11a.57.57,0,0,1-.14-.48c0-.16,0-.22-.11-.11s-.14.13-.15.22c-.06.52-.28.75-.69.78-.25,0-.44-.16-.26-.66,0-.11,0-.22-.15,0-.38.76-.15,1.18.24,1.23a.84.84,0,0,0,.88-.61.61.61,0,0,0,.71.25c.34-.09.41-.25.51-.53a1.65,1.65,0,0,0,0-1C206.74,129.76,206.7,129.8,206.69,129.84Zm8.23-1.32s-.06.06-.06.15l-.16.87a1.23,1.23,0,0,0,0,.47c.1.56.25,1.16.38,1.72.25,1.24.5,2.46.72,3.61a24,24,0,0,1,.37,2.75c0,.15.09.15.12,0a4.61,4.61,0,0,0,.16-1.5,17.77,17.77,0,0,0-.34-2.34c-.19-1-.44-2.12-.63-3.05s-.37-1.75-.46-2.59a.12.12,0,0,0-.1-.13Zm-5.14,7.1,0,0,0,0a5.23,5.23,0,0,1-3.74,1.49h-.31l.06-.06.28-.28a6.41,6.41,0,0,1,2.12-1.65,1.59,1.59,0,0,1,.4-.07A1.72,1.72,0,0,1,209.78,135.62Zm1.65-7.35a2,2,0,0,0-.37.84,2.43,2.43,0,0,0,.28.62c.15,1.28.47,2.75.71,3.93.16.81.32,1.53.38,2-.25.65-2.31,1.21-3,1.27h-.1l.07-.06a2.47,2.47,0,0,0,.68-1.81.93.93,0,0,0-.44-.68,1.12,1.12,0,0,0-.74-.22,2,2,0,0,0-.88.22,9.44,9.44,0,0,0-1.49,1.31,10.87,10.87,0,0,1-1.65,1.43,4.1,4.1,0,0,1-1.66-.65.51.51,0,0,0-.25-.1c-.09,0-.18.06-.37.25a3.08,3.08,0,0,1-2.12.78,3.29,3.29,0,0,1-1.31-.25,2.13,2.13,0,0,1-1.06-1.74c-.12-.6-.22-1.44-.31-2.31a40.69,40.69,0,0,0-.63-4.18c0-.06,0-.09-.06-.09a2.8,2.8,0,0,0-.25,1c.19.85.28,1.87.41,3a15.83,15.83,0,0,0,.87,4.58,1.85,1.85,0,0,0,1.37,1,4.48,4.48,0,0,0,.63.06,3.69,3.69,0,0,0,2.71-1.09l0,0,0,0,.28.18c.22.13.44.29.69.41h0v0a2.67,2.67,0,0,1-.16.44,10.23,10.23,0,0,0-.34,1.06.5.5,0,0,0,0,.25h0s.06,0,.16-.19h0c0-.09.12-.31.22-.56a7.23,7.23,0,0,1,.34-.87v0h0a7.85,7.85,0,0,0,1.74.16,14,14,0,0,0,5.84-1.12,2.35,2.35,0,0,0,1-2.25,15.7,15.7,0,0,0-.43-2.49c-.19-.78-.35-1.56-.47-2.37v0a2.1,2.1,0,0,0,.37-.59c0-.13-.09-.25-.25-.41a2,2,0,0,1-.47-.68s0,0,0,0S211.46,128.24,211.43,128.27ZM193.94,128a8,8,0,0,0-.43.75.11.11,0,0,0,0,.15,2.39,2.39,0,0,0,.31.62l.06.1c.16,1.21.53,3,.84,4.43.22.93.38,1.74.44,2.21a.74.74,0,0,1-.72.43,1.8,1.8,0,0,1-1.5-1.15,8.91,8.91,0,0,1-.46-1.81,5.13,5.13,0,0,0-.22-1c0-.07-.1-.13-.13-.13a.1.1,0,0,0,0,.06,1.94,1.94,0,0,1-.56,1.1,1.87,1.87,0,0,1-1.06.4.39.39,0,0,1-.28-.09.54.54,0,0,0-.06-.16,1.23,1.23,0,0,0-.34-.5,2.49,2.49,0,0,0-.19,1,4.05,4.05,0,0,1,.62,1.53c-1.06,1.93-4.8,2.62-7.92,2.62a17,17,0,0,1-6.73-1.19,14.28,14.28,0,0,1-2.09-1.18.57.57,0,0,0-.19-.1h0a.41.41,0,0,0,0,.16,5.77,5.77,0,0,0,1.5,1.71,10.42,10.42,0,0,0,4,1.44,16.83,16.83,0,0,0,2.87.22c2.59,0,6-.5,7.64-1.84l-.06-.06a2.83,2.83,0,0,0,1.15-2.62v0h.16c.68,0,1.15-.4,1.4-1.21h.06a15.29,15.29,0,0,0,.69,2.65,1.59,1.59,0,0,0,1.46,1.15h.07a1,1,0,0,0,.77-.31,2.8,2.8,0,0,0,.38-2c-.13-1.06-.44-2.43-.72-3.74-.15-.68-.31-1.34-.4-1.93a1.49,1.49,0,0,0,.37-.53.64.64,0,0,0-.16-.31,2.44,2.44,0,0,1-.43-.81c0-.06,0-.1-.06-.1S194,128,193.94,128Zm13.84-.47c-.75.31-4.11,1.4-4.74,1.68,0,0-.06,0-.09.1s-.12.37-.19.53,0,.06.1,0a3.68,3.68,0,0,1,.34-.16c.53-.19,3.71-1.25,4.37-1.49v0c.06,0,.09,0,.12-.09s.12-.34.16-.5S207.81,127.55,207.78,127.55Zm-8.13-.94a3.27,3.27,0,0,1-2.22.88,1.6,1.6,0,0,1-1-.31c-.06-.07-.12,0-.18,0a2.71,2.71,0,0,0-.47,1.09c0,.06,0,.15,0,.15s.06,0,.09-.06a2.91,2.91,0,0,1,.31-.65s.07,0,.1,0a2.28,2.28,0,0,0,1.31.31c.68,0,2-.47,2.15-1.41v-.06A.09.09,0,0,0,199.65,126.61Zm16.61-.31a.38.38,0,0,1,.13.25c-.1.22-.75.47-1,.53,0,0-.31.06-.28,0v0a2.3,2.3,0,0,1,.5-.68C215.83,126.18,216,126.12,216.26,126.3Zm-.65-.4a6,6,0,0,0-.84,1.18,1.5,1.5,0,0,1-.47-.19c-.13-.09-.25.07-.31.19a5.33,5.33,0,0,0-.35.72l-.09.25c0,.12,0,.15.13.06v0c.15-.19.31-.66.4-.59a1.83,1.83,0,0,0,1.93-.19,1.35,1.35,0,0,0,.66-1.34.51.51,0,0,0-.47-.38A.9.9,0,0,0,215.61,125.9Zm-20.73-.4-.19.35s0,.07,0,.11a1.08,1.08,0,0,1,.09.39.45.45,0,0,1-.62.1A.57.57,0,0,1,194,126c0-.16,0-.22-.11-.1s-.14.13-.15.21c-.06.52-.28.76-.69.79-.25,0-.44-.16-.26-.66,0-.11,0-.22-.15,0-.38.75-.15,1.17.24,1.23a.84.84,0,0,0,.88-.61.62.62,0,0,0,.71.24c.34-.09.41-.25.51-.52a1.65,1.65,0,0,0,0-1C194.93,125.43,194.89,125.47,194.88,125.5ZM216.36,56s-.06,0-.1.1a4.92,4.92,0,0,1-.15.47c0,.06,0,.06.09,0a1.3,1.3,0,0,0,.31-.16c.53-.22,2.93-1.12,3.59-1.37h0s.09,0,.09-.1a3.68,3.68,0,0,0,.13-.43c0-.06,0-.06-.06-.06C219.54,54.81,217,55.74,216.36,56Zm-18-.9s-.06,0-.09.1-.1.34-.16.46,0,.07.09,0a1.82,1.82,0,0,0,.31-.16h0c.53-.22,2.08-.87,2.74-1.12,0,0,.09,0,.09-.1s.1-.31.13-.43,0-.06-.07-.06C200.68,54.16,199,54.84,198.34,55.12Zm19.52-2a4.78,4.78,0,0,0-.38.65l0,0c-.06.06-.06.13,0,.16s.44.25.63.34.12,0,.15,0,.28-.44.38-.62.06-.13,0-.16l-.69-.4C217.92,53.06,217.89,53.06,217.86,53.13Zm-18.09-1.69a3.26,3.26,0,0,1-1.28-.4c-.09-.06-.12-.06-.09-.13s.41-.68.59-.65S199.37,50.79,199.77,51.44Zm17.24-3a8.76,8.76,0,0,1,1.25,2.37c.16.41-1.37.06-1.75-.06a1.83,1.83,0,0,0,.07-.56c0-.16-.13-.1-.16,0-.25.71-.44,1.21-.62,1.28a2.84,2.84,0,0,1-.94-.35c.06-.22.19-.53.25-.75s-.06-.31-.12-.18c-.78,1.24-1.94,1.71-3.15,1a5.66,5.66,0,0,0,.25-.66c0-.19-.07-.28-.25-.12-.69.62-3,1.27-5.8,1.4a11.62,11.62,0,0,1-5.64-.91,2.88,2.88,0,0,1-.9-.8l-.16-.19-.07-.07c-.17-.17-.25-.12-.5,0a1.69,1.69,0,0,0-.56,2.21c-.62,1-2.49,1.84-3.64,2.4-.16.06-.13.28.09.22,2.12-.41,3.21-.91,3.9-2.5.53.19,1.09.28,1.84.47.09,0,.09,0,.25-.5,3.49,1.31,8.6.47,10.94-.71.56,1.59,2.15.93,2.68.4a2.55,2.55,0,0,0,1.34.59,2.32,2.32,0,0,0,.72-1c.37.28,1.43.74,1.81.53a.92.92,0,0,0,.34-.63c.43-1.77-.53-3-1.28-4.05A6.36,6.36,0,0,0,217,48.42Zm-4.36-2.06a1.47,1.47,0,0,1-.1.22c0,.09,0,.19.1.09a.76.76,0,0,1,.25-.28,1.21,1.21,0,0,1,.78-.18,2.1,2.1,0,0,1,.71.22s-1.09.59-1.24.68-.19.13-.16.22.13.09.22.06c.4-.15.56-.12.9-.28l0,0a2.69,2.69,0,0,0,.69-.47.18.18,0,0,0,.12,0,1.07,1.07,0,0,0,.25-.56c0-.06-.31-.09-.4-.12a6.39,6.39,0,0,0-.91-.25A1.17,1.17,0,0,0,212.65,46.36Zm-26.93,7.48s-.07,0-.1.1a2.62,2.62,0,0,0-.15.47c0,.06,0,.06.09,0l.31-.13c.53-.18,1.59-.59,2.28-.84,0,0,.09,0,.09-.09s.13-.31.16-.44,0-.06-.06-.06Zm2.68-3.39a3.9,3.9,0,0,1-2,.09s0,0,0,0c.41-.59,1-.78,2.09-1.15C188.43,49.72,188.43,50.11,188.4,50.45ZM193,46.86a4.87,4.87,0,0,0-.16.87v.13l.07,0A9.81,9.81,0,0,0,194,50.57c.12.31-.16.5-.56.41a2.15,2.15,0,0,1-1.56-1.78c-.16-.78-.19-1.28-.35-2.12,0-.28-.06-.31-.15-.06a4,4,0,0,0-.22.71v.13c.09.62.22,1.65.41,2.43-.29.69-1.59,1.75-2.41.9-.43-.49-.34-1.74-.31-3.36,0-.13,0-.22-.09-.06s-.09.25-.19.43a.12.12,0,0,0,0,.1,1.51,1.51,0,0,0-.06.37,4.12,4.12,0,0,0-1.87,1,4.63,4.63,0,0,0-.81,1.65c-.06.19,0,.25.15.28,1.62.09,1.62.06,2.53-.65,0,1.27.59,1.68,1.25,1.68a2.39,2.39,0,0,0,2-1.68,2.73,2.73,0,0,0,1.75,1.24.68.68,0,0,0,.56-.25,2.4,2.4,0,0,0,.31-1.21c0-.78-.37-1.09-.75-2.25-.15-.47-.28-1-.4-1.53C193.11,46.8,193,46.61,193,46.86Zm-1-3-.19.35s0,.07,0,.11a1.12,1.12,0,0,1,.1.39.46.46,0,0,1-.63.1.57.57,0,0,1-.14-.48c0-.16,0-.22-.11-.1s-.13.13-.14.21c-.07.52-.29.76-.7.79-.25,0-.43-.16-.26-.66,0-.11,0-.22-.15,0-.38.75-.15,1.17.24,1.23a.84.84,0,0,0,.88-.61.63.63,0,0,0,.71.24.64.64,0,0,0,.51-.52,1.65,1.65,0,0,0,0-1C192,43.75,191.91,43.79,191.9,43.82Zm2.83-1.35s-.07.06-.07.15l-.15.87a1.22,1.22,0,0,0,0,.47c.09.56.25,1.16.37,1.72.25,1.24.5,2.46.72,3.61A22,22,0,0,1,196,52c0,.15.1.15.13,0a4.91,4.91,0,0,0,.15-1.5,16.23,16.23,0,0,0-.34-2.34c-.19-1-.44-2.12-.62-3.05a25.32,25.32,0,0,1-.47-2.59c0-.09-.06-.12-.09-.12Zm-6.27.43s-.06,0-.1.1a4,4,0,0,1-.15.46c0,.07,0,.07.09,0a1.27,1.27,0,0,0,.31-.15c.5-.22,2.93-1.12,3.59-1.37h0s.09,0,.09-.1a3.68,3.68,0,0,0,.13-.43c0-.06,0-.06-.06-.06C191.64,41.69,189.11,42.62,188.46,42.9Zm7.7-2.61a.37.37,0,0,1,.12.25c-.09.21-.74.46-1,.52,0,0-.31.07-.28,0v0a2.58,2.58,0,0,1,.5-.68A.45.45,0,0,1,196.16,40.29Zm-.65-.41a6.54,6.54,0,0,0-.85,1.18,1.46,1.46,0,0,1-.46-.18c-.16-.1-.25.06-.32.18a5.3,5.3,0,0,0-.34.72l-.09.25c0,.13,0,.16.12.06s.31-.65.41-.59v0a1.81,1.81,0,0,0,1.93-.19,1.35,1.35,0,0,0,.66-1.34.52.52,0,0,0-.47-.37A.88.88,0,0,0,195.51,39.88ZM167.6,56.31s-.06,0-.09.09-.09.34-.16.47,0,.06.1,0a1.15,1.15,0,0,0,.31-.16l3.58-1.37h0s.09,0,.09-.09.09-.31.12-.44,0-.06-.06-.06C170.78,55.09,168.26,56,167.6,56.31Zm.63-9.26,0,0a6.25,6.25,0,0,0-.37.65c-.07.06-.07.13,0,.16s.43.25.62.34.13,0,.16,0,.28-.44.37-.62.06-.13,0-.16l-.69-.4C168.29,47,168.26,47,168.23,47.05Zm5.27,3.87a3.15,3.15,0,0,1-1.31-.41c-.07,0-.07-.06,0-.09a.58.58,0,0,1,.47-.32A1,1,0,0,1,173.5,50.92Zm-1-2.81c0,.15,0,.22.15.12.6-.28,1.25-.71,3.12.38a7.59,7.59,0,0,0-2.74.5c-1.34.53-1.09,1.87-2.59,1.52-.34-.09-.37-.25-.56-.53a4.21,4.21,0,0,1-.25-.43c-.09-.13-.09-.16-.16,0s-.12.47-.18.75c0,.09,0,.09.06.22a3.4,3.4,0,0,1,.5,1.3c0,.16,0,.19,0,.22-1.47,2.31-6.64,3.62-9.57,3.81a24.37,24.37,0,0,1-8.58-.94,17.7,17.7,0,0,1-4.42-2.12c-.22-.19-.35-.22-.38-.15s.16.37.22.43a8.85,8.85,0,0,0,4.8,3,22.75,22.75,0,0,0,10,.63c2.83-.41,8.73-2.15,8.38-5.37.53.32,1.16-.15,1.44-.49.06.53.46.74.9.87a1.36,1.36,0,0,0,1.09-.06,1.15,1.15,0,0,0,.34-1,1.46,1.46,0,0,0-.56-1.18c.69-.19,3.37-.82,4.87-.22.06,0,.06,0,.09,0,.19-.28.38-.44.56-.75.06-.1.06-.1-.06-.13a8.61,8.61,0,0,1-2.37-.5c-1.68-.59-1.81-1.15-2.49-1.15v0C173.43,46.8,172.87,47.14,172.5,48.11ZM170,45.4a2.08,2.08,0,0,0-.18.53,3.08,3.08,0,0,0,.28.4,3.22,3.22,0,0,1,.59,2.46c0,.07,0,.16,0,.16.22,0,.34-.78.34-1.18a3.72,3.72,0,0,0-.9-2.37C170.13,45.33,170.07,45.33,170,45.4Zm9.56-1.11-.18.34s0,.07,0,.11a1.12,1.12,0,0,1,.09.39c-.22.21-.45.25-.62.11a.57.57,0,0,1-.14-.48c0-.16,0-.22-.12-.11s-.13.13-.14.22c-.06.52-.29.75-.69.78s-.44-.16-.26-.66c0-.11,0-.22-.15,0-.38.75-.15,1.18.23,1.23a.83.83,0,0,0,.88-.61.65.65,0,0,0,.71.25c.35-.09.42-.25.52-.53a1.73,1.73,0,0,0,0-1C179.65,44.21,179.61,44.25,179.59,44.29Zm-6.62.39a2.14,2.14,0,0,0-.1.22c0,.09,0,.18.1.09a.74.74,0,0,1,.24-.28,1.16,1.16,0,0,1,.78-.19,2.45,2.45,0,0,1,.72.22s-1.09.59-1.25.69-.18.12-.15.22.12.09.22.06c.4-.16.56-.13.9-.28l0,0a2.69,2.69,0,0,0,.69-.47.18.18,0,0,0,.12,0,1.2,1.2,0,0,0,.25-.56c0-.07-.31-.1-.41-.13a7.88,7.88,0,0,0-.9-.25A1.18,1.18,0,0,0,173,44.68Zm7.95-2.37c-.16.25-.5.69-.47.78l-.06-.06a1.89,1.89,0,0,0,.31.74c.34,2.28.62,3.5,1.18,6.3a1.75,1.75,0,0,1-2,.13c-.1-.13-.16-.06-.19.09a.87.87,0,0,0,.37,1.15,4,4,0,0,1-5.73,2c-.16-.06-.25.15-.06.25a5.53,5.53,0,0,0,4.14.75,4,4,0,0,0,2.06-2.87c.34,0,1.15-.1,1.43-.5a3.7,3.7,0,0,0,.16-2.65c-.31-1.47-.62-3.18-.81-4.24.25-.25.59-.5.53-.56a2.78,2.78,0,0,1-.72-1.25C181.07,42.15,181,42.22,180.92,42.31Zm-11.17,1.22s-.06,0-.09.09-.09.34-.16.47,0,.06.1,0a1.53,1.53,0,0,0,.31-.16c.53-.22,2.93-1.12,3.59-1.37h0s.09,0,.09-.09.09-.31.12-.44,0-.06-.06-.06C172.93,42.31,170.41,43.25,169.75,43.53ZM183.16,42l-.12.87a.93.93,0,0,0,0,.47c.09.59.21,1.15.34,1.71.25,1.28.53,2.47.75,3.65a24.14,24.14,0,0,1,.37,2.74c0,.16.09.16.13,0a6.06,6.06,0,0,0,.15-1.5,17.77,17.77,0,0,0-.34-2.34c-.19-1-.44-2.12-.62-3a25.32,25.32,0,0,1-.47-2.59.12.12,0,0,0-.1-.13l0,0S183.16,41.9,183.16,42Zm-7,.72c-.07,0-.07,0-.1.09a4.48,4.48,0,0,0-.12.47c0,.06,0,.06.06,0s.22-.13.31-.16h0c.53-.22,2.93-1.12,3.59-1.37,0,0,.06,0,.09-.09s.1-.31.13-.44,0-.06-.07-.06C179.36,41.5,176.83,42.44,176.18,42.72Zm8.57-2.9a.38.38,0,0,1,.13.25c-.1.22-.75.47-1,.53,0,0-.31.06-.28,0l0,0a2.76,2.76,0,0,1,.53-.69A.45.45,0,0,1,184.75,39.82Zm-.65-.41a6.28,6.28,0,0,0-.85,1.19,1.5,1.5,0,0,1-.46-.19c-.13-.09-.25.06-.32.19a5.17,5.17,0,0,0-.34.71l-.09.25c0,.13,0,.16.12.07s.31-.66.41-.6v0a1.81,1.81,0,0,0,1.93-.18,1.38,1.38,0,0,0,.66-1.35.52.52,0,0,0-.47-.37A.93.93,0,0,0,184.1,39.41ZM143.19,54.87s-.06,0-.09.1-.1.34-.16.47,0,.06.1,0a1.84,1.84,0,0,0,.31-.16l0,0c.5-.22,2.09-.87,2.74-1.12,0,0,.1,0,.1-.09s.09-.32.12-.44,0-.06-.06-.06C145.53,53.94,143.85,54.62,143.19,54.87Zm9.42-2.43c-.13.22-.28.5-.44.72-.22-.16-.5-.31-.69-.44s-.15-.06-.21,0l0,0c-.13.19-.28.44-.41.66s0,.15.09.22.53.31.72.4.09,0,.16-.06a3.18,3.18,0,0,0,.4-.62c.28.18.53.31.75.43.06,0,.09,0,.16,0s.31-.47.4-.62,0-.16-.06-.22l-.69-.44C152.67,52.38,152.64,52.38,152.61,52.44Zm2.37,0s-.07,0-.1.1a4,4,0,0,1-.15.46c0,.07,0,.07.09,0a1.47,1.47,0,0,0,.31-.15l0,0c.53-.22,2.09-.87,2.75-1.12,0,0,.09,0,.09-.1s.09-.31.13-.43,0-.07-.07-.07C157.32,51.51,155.63,52.19,155,52.44Zm-9.48-2.77c.15.15.19.5.56,1.15a2.88,2.88,0,0,1-1.18-.44c-.07-.06-.1-.09-.07-.15l0,0c.1-.19.35-.62.57-.62A.11.11,0,0,1,145.5,49.67Zm8-.56c0,.09.07.21.19.09.87-.66,2.53-.16,3.93.31-1.44.5-3.4,1.56-4.37.69,0-.1.07-.56,0-.59s-.19.21-.37.37a5.26,5.26,0,0,1-2.15.87c-1.66.22-3.37.38-4.59-1.28-.21-.25-.31-.53-.62-.53s-.84.47-1,1.06-.15,1.16.16,1.38a12.65,12.65,0,0,1-3.34,2.37c-.25.12-.15.24.06.21.63-.09,3.18-1,3.59-2.43a14.91,14.91,0,0,0,1.68.47c.1,0,.1,0,.28-.56a6.44,6.44,0,0,0,6.18-.87c.43.43.78.77,1.24.74a12,12,0,0,0,3.46-1.21,3.46,3.46,0,0,1,2.65-.16s.07,0,.07,0c.18-.34.28-.5.53-.93,0-.07,0-.1-.07-.1a11,11,0,0,1-2.68-.15c-2.09-.41-2.4-1-3.21-1v0A1.79,1.79,0,0,0,153.54,49.11Zm8.29-4.55-.19.35s0,.06,0,.1a1.12,1.12,0,0,1,.09.39c-.21.21-.45.25-.62.11A.57.57,0,0,1,161,45c0-.16,0-.22-.11-.11s-.14.13-.15.22c-.06.52-.28.76-.69.78-.25,0-.44-.16-.26-.66,0-.1,0-.22-.15,0-.38.76-.15,1.18.24,1.23a.84.84,0,0,0,.88-.6.63.63,0,0,0,.71.24.64.64,0,0,0,.51-.53,1.62,1.62,0,0,0,0-1C161.88,44.49,161.84,44.52,161.83,44.56Zm-3.61-1s-.07,0-.1.1a4,4,0,0,1-.15.46c0,.07,0,.07.09,0a1.47,1.47,0,0,0,.31-.15c.5-.22,2.93-1.12,3.59-1.4l0,0s.09,0,.09-.1.09-.31.13-.43,0-.07-.07-.07C161.4,42.38,158.87,43.31,158.22,43.59Zm5.08-1.9c-.12.18-.34.46-.44.62s0,.09,0,.19.16.37.32.71v0c.18,1.87.59,3.27,1.15,6.36a1.82,1.82,0,0,1-1.9.18c-.19-.18-.25-.09-.31.25-.1.63.15.81.4.94-1,2.4-3.24,3.08-5.7,2-.25-.09-.35.13-.13.25,2.87,1.56,5.46,1.16,6.24-2.18a2.81,2.81,0,0,0,1.15-.31c1-.59.5-2.43.31-3.46l-.68-3.65c.15-.19.28-.34.43-.56s.06-.09,0-.19-.4-.71-.65-1.18C163.43,41.59,163.43,41.5,163.3,41.69Zm2.25-.13-.13.88a1.18,1.18,0,0,0,0,.46c.1.56.22,1.16.35,1.72.24,1.28.53,2.46.74,3.64a22.32,22.32,0,0,1,.38,2.75c0,.15.09.15.12,0a5.62,5.62,0,0,0,.16-1.5,18,18,0,0,0-.34-2.34c-.19-1-.44-2.12-.63-3.05s-.37-1.75-.47-2.59l0,0c0-.09-.06-.12-.09-.12S165.55,41.47,165.55,41.56ZM167,39.32a.38.38,0,0,1,.13.25c-.1.22-.75.47-1,.53,0,0-.31.06-.28,0l0,0a2.76,2.76,0,0,1,.53-.69A.45.45,0,0,1,167,39.32Zm-.65-.41a6.61,6.61,0,0,0-.85,1.19,1.87,1.87,0,0,1-.46-.19c-.16-.09-.25.06-.31.19a5.33,5.33,0,0,0-.35.72l-.09.24c0,.13,0,.16.12.07s.32-.66.41-.59v0a1.81,1.81,0,0,0,1.93-.18,1.36,1.36,0,0,0,.66-1.34.51.51,0,0,0-.47-.38A.93.93,0,0,0,166.33,38.91Z"/></g></g></g></svg>